<svg width="131" height="37" viewBox="0 0 131 37" fill="none" xmlns="http://www.w3.org/2000/svg">
<g clip-path="url(#clip0_91_2081)">
<path d="M53.4427 6.64575L51.6989 4.83984C48.9786 2.02262 45.4211 0.577891 41.7939 0.577891H41.6545C39.5618 0.577891 37.3995 1.08355 35.4464 2.09486L30.9822 4.40642L17.7988 0L0.5 12.3524L12.0093 36.3349H23.9371L30.0754 32.1452L34.3303 34.2401C36.2835 35.2513 38.376 35.6847 40.4686 35.6847C44.7933 35.6847 49.0483 33.5899 51.7687 29.8337L54.768 25.6439C59.023 19.9372 58.465 11.7746 53.4427 6.64575ZM22.9605 33.0843H13.9624L4.61545 13.5082L18.3568 3.68405L27.1458 6.64575C23.379 9.39073 21.1469 13.7972 21.1469 18.637C21.1469 23.3323 23.379 27.7388 26.9365 30.4837L22.9605 33.0843ZM29.8662 28.3889C26.5179 26.3663 24.3556 22.61 24.3556 18.5648C24.3556 14.2306 26.6575 10.402 30.4242 8.45166L31.331 8.01824L33.4235 8.7406L38.0273 22.9712L29.8662 28.3889ZM52.2569 23.7658L49.2575 27.9555C47.2347 30.7727 43.9563 32.5063 40.4686 32.5063C38.7945 32.5063 37.1902 32.1452 35.7253 31.3506L33.2143 30.0503L41.7939 24.1992L35.8649 6.06786L35.3069 5.85115L36.8415 5.05655C38.376 4.26195 40.0501 3.82853 41.7242 3.82853C44.6538 3.82853 47.3742 4.98431 49.4668 7.1514L51.2107 8.95732C55.0471 12.9303 55.4656 19.2871 52.2569 23.7658Z" fill="white" fill-opacity="0.6"/>
<path d="M78.5698 18.1865C80.0729 17.6487 81.2419 16.0354 81.2419 13.8172C81.2419 10.1201 78.5698 8.20435 74.2945 8.20435H67.1133V28.8408H74.9625C79.2379 28.8408 81.9099 26.7906 81.9099 22.9254C81.9099 20.7408 80.5071 18.825 78.5698 18.1865ZM70.4868 16.8757V11.2292H74.2611C76.6326 11.2292 77.9018 12.0695 77.9018 14.0188C77.9018 15.9682 76.6326 16.8757 74.2611 16.8757H70.4868ZM70.4868 19.7661H74.8957C77.2338 19.7661 78.503 20.9088 78.503 22.791C78.503 24.6395 77.2338 25.8159 74.8957 25.8159H70.4868V19.7661Z" fill="white" fill-opacity="0.6"/>
<path d="M92.9249 13.8509C92.6911 13.7165 92.0231 13.582 91.2883 13.582C89.852 13.582 88.5494 14.3551 87.9816 15.4642V13.9181H84.6415V28.8409H87.9816V19.1949C88.3156 17.5816 89.5848 16.8086 90.9543 16.8086C91.6557 16.8086 92.4573 16.9766 92.9249 17.3127V13.8509Z" fill="white" fill-opacity="0.6"/>
<path d="M106.258 28.8409V19.0604C106.258 15.6658 104.054 13.582 100.313 13.582C97.2736 13.582 94.9355 15.4978 94.5013 18.0521H97.7078C98.0752 17.0102 98.9103 16.4389 100.246 16.4389C102.15 16.4389 103.085 17.6152 103.085 19.1276V20.3376C102.484 19.9007 100.981 19.4301 99.6451 19.4301C96.3718 19.4301 93.8667 21.4131 93.8667 24.2363C93.8667 27.2948 96.3718 29.1098 99.4113 29.1098C101.081 29.1098 102.584 28.5048 103.085 28.0006V28.8409H106.258ZM103.085 24.8749C102.718 25.816 101.382 26.3874 100.046 26.3874C98.5428 26.3874 96.973 25.7488 96.973 24.2363C96.973 22.7575 98.5428 22.1189 100.046 22.1189C101.382 22.1189 102.718 22.6903 103.085 23.6314V24.8749Z" fill="white" fill-opacity="0.6"/>
<path d="M112.871 13.9182H109.53V28.8409H112.871V13.9182ZM113.271 9.41445C113.271 8.27172 112.303 7.36426 111.2 7.36426C110.098 7.36426 109.13 8.27172 109.13 9.41445C109.13 10.5572 110.098 11.4647 111.2 11.4647C112.303 11.4647 113.271 10.5572 113.271 9.41445Z" fill="white" fill-opacity="0.6"/>
<path d="M125.951 28.8407H129.291V6.99438H125.951V15.1952C125.283 14.3549 123.814 13.5819 122.177 13.5819C117.835 13.5819 115.297 17.1109 115.297 21.3794C115.297 25.6814 117.835 29.1768 122.177 29.1768C123.814 29.1768 125.283 28.4038 125.951 27.5636V28.8407ZM125.951 24.2026C125.384 25.3789 124.114 26.1856 122.746 26.1856C120.173 26.1856 118.637 24.1354 118.637 21.3794C118.637 18.6234 120.173 16.5732 122.746 16.5732C124.114 16.5732 125.384 17.3798 125.951 18.5562V24.2026Z" fill="white" fill-opacity="0.6"/>
</g>
<defs>
<clipPath id="clip0_91_2081">
<rect width="129.768" height="36.3349" fill="white" transform="translate(0.5)"/>
</clipPath>
</defs>
</svg>
