<svg width="151" height="42" viewBox="0 0 151 42" xmlns="http://www.w3.org/2000/svg">
<path d="M61.5304 7.6819L59.5148 5.59444C56.3703 2.33797 52.2582 0.667992 48.0655 0.667992H47.9043C45.4853 0.667992 42.9858 1.25248 40.7283 2.42147L35.568 5.09344L20.3292 0L0.333252 14.2783L13.6369 42H27.4246L34.5198 37.157L39.4381 39.5786C41.6958 40.7475 44.1146 41.2485 46.5335 41.2485C51.5324 41.2485 56.4509 38.827 59.5954 34.4851L63.0623 29.6422C67.9808 23.0457 67.3358 13.6104 61.5304 7.6819ZM26.2956 38.2426H15.8946L5.09035 15.6143L20.9742 4.25845L31.1335 7.6819C26.7794 10.8549 24.1993 15.9483 24.1993 21.5427C24.1993 26.9702 26.7794 32.0636 30.8915 35.2366L26.2956 38.2426ZM34.278 32.8151C30.4077 30.4772 27.9082 26.1352 27.9082 21.4592C27.9082 16.4493 30.5691 12.0239 34.923 9.76938L35.9712 9.26839L38.3899 10.1034L43.7116 26.5527L34.278 32.8151ZM60.1598 27.4712L56.6927 32.3141C54.3545 35.5706 50.565 37.5745 46.5335 37.5745C44.5984 37.5745 42.744 37.157 41.0507 36.2385L38.1481 34.7356L48.0655 27.9721L41.212 7.01392L40.567 6.76342L42.3408 5.84493C44.1146 4.92644 46.0497 4.42545 47.9849 4.42545C51.3712 4.42545 54.5157 5.76143 56.9346 8.2664L58.9504 10.3539C63.3849 14.9464 63.8687 22.2943 60.1598 27.4712Z" fill="white" fill-opacity="0.6"/>
<path d="M90.5753 21.0221C92.3127 20.4005 93.664 18.5357 93.664 15.9716C93.664 11.6981 90.5753 9.48364 85.6334 9.48364H77.3325V33.3375H86.4056C91.3475 33.3375 94.4362 30.9677 94.4362 26.4999C94.4362 23.9747 92.8146 21.7602 90.5753 21.0221ZM81.232 19.5069V12.9801H85.5948C88.336 12.9801 89.8031 13.9514 89.8031 16.2047C89.8031 18.458 88.336 19.5069 85.5948 19.5069H81.232ZM81.232 22.848H86.3283C89.031 22.848 90.4981 24.1689 90.4981 26.3445C90.4981 28.4813 89.031 29.841 86.3283 29.841H81.232V22.848Z" fill="white" fill-opacity="0.6"/>
<path d="M107.168 16.0105C106.898 15.8551 106.126 15.6997 105.277 15.6997C103.616 15.6997 102.111 16.5933 101.454 17.8753V16.0882H97.5935V33.3376H101.454V22.1877C101.84 20.3229 103.308 19.4293 104.891 19.4293C105.701 19.4293 106.628 19.6236 107.168 20.0121V16.0105Z" fill="white" fill-opacity="0.6"/>
<path d="M122.581 33.3376V22.0323C122.581 18.1084 120.033 15.6997 115.709 15.6997C112.195 15.6997 109.493 17.9142 108.991 20.8668H112.697C113.122 19.6624 114.087 19.002 115.631 19.002C117.832 19.002 118.913 20.3617 118.913 22.11V23.5086C118.218 23.0035 116.481 22.4596 114.936 22.4596C111.153 22.4596 108.257 24.7518 108.257 28.0152C108.257 31.5505 111.153 33.6484 114.666 33.6484C116.597 33.6484 118.334 32.9491 118.913 32.3664V33.3376H122.581ZM118.913 28.7533C118.488 29.8411 116.944 30.5016 115.4 30.5016C113.662 30.5016 111.848 29.7634 111.848 28.0152C111.848 26.3058 113.662 25.5676 115.4 25.5676C116.944 25.5676 118.488 26.2281 118.913 27.3159V28.7533Z" fill="white" fill-opacity="0.6"/>
<path d="M130.224 16.0882H126.363V33.3376H130.224V16.0882ZM130.687 10.8823C130.687 9.5614 129.567 8.51245 128.293 8.51245C127.019 8.51245 125.9 9.5614 125.9 10.8823C125.9 12.2032 127.019 13.2522 128.293 13.2522C129.567 13.2522 130.687 12.2032 130.687 10.8823Z" fill="white" fill-opacity="0.6"/>
<path d="M145.344 33.3375H149.205V8.08496H145.344V17.5644C144.572 16.5931 142.874 15.6996 140.981 15.6996C135.962 15.6996 133.029 19.7788 133.029 24.7128C133.029 29.6856 135.962 33.726 140.981 33.726C142.874 33.726 144.572 32.8324 145.344 31.8612V33.3375ZM145.344 27.9762C144.688 29.3359 143.221 30.2683 141.639 30.2683C138.665 30.2683 136.889 27.8985 136.889 24.7128C136.889 21.5271 138.665 19.1572 141.639 19.1572C143.221 19.1572 144.688 20.0896 145.344 21.4494V27.9762Z" fill="white" fill-opacity="0.6"/>
</svg>