<svg width="104" height="31" viewBox="0 0 104 31" fill="none" xmlns="http://www.w3.org/2000/svg">
<path d="M41.4053 24C40.8593 24 40.4393 23.853 40.1453 23.559C39.8513 23.265 39.7043 22.845 39.7043 22.299V10.896C39.7043 10.35 39.8513 9.93 40.1453 9.636C40.4393 9.342 40.8593 9.195 41.4053 9.195H46.4873C47.5373 9.195 48.4333 9.349 49.1753 9.657C49.9173 9.965 50.4773 10.406 50.8553 10.98C51.2473 11.554 51.4433 12.24 51.4433 13.038C51.4433 13.92 51.1913 14.669 50.6873 15.285C50.1833 15.901 49.4903 16.314 48.6083 16.524V16.188C49.6303 16.37 50.4213 16.776 50.9813 17.406C51.5553 18.022 51.8423 18.827 51.8423 19.821C51.8423 21.137 51.3873 22.166 50.4773 22.908C49.5673 23.636 48.3143 24 46.7183 24H41.4053ZM42.8123 21.585H46.2773C47.1173 21.585 47.7333 21.424 48.1253 21.102C48.5173 20.766 48.7133 20.276 48.7133 19.632C48.7133 18.988 48.5173 18.505 48.1253 18.183C47.7333 17.861 47.1173 17.7 46.2773 17.7H42.8123V21.585ZM42.8123 15.285H45.9203C46.7323 15.285 47.3343 15.131 47.7263 14.823C48.1183 14.515 48.3143 14.053 48.3143 13.437C48.3143 12.835 48.1183 12.38 47.7263 12.072C47.3343 11.764 46.7323 11.61 45.9203 11.61H42.8123V15.285ZM55.9438 24.189C55.4118 24.189 55.0058 24.042 54.7258 23.748C54.4458 23.454 54.3058 23.041 54.3058 22.509V10.854C54.3058 10.308 54.4458 9.895 54.7258 9.615C55.0198 9.335 55.4328 9.195 55.9648 9.195H61.0678C62.7198 9.195 63.9938 9.594 64.8898 10.392C65.7858 11.19 66.2338 12.303 66.2338 13.731C66.2338 14.655 66.0308 15.453 65.6248 16.125C65.2188 16.797 64.6308 17.315 63.8608 17.679C63.1048 18.043 62.1738 18.225 61.0678 18.225L61.2358 17.868H62.0968C62.6848 17.868 63.1958 18.015 63.6298 18.309C64.0778 18.589 64.4628 19.023 64.7848 19.611L66.0868 22.026C66.2828 22.376 66.3738 22.719 66.3598 23.055C66.3458 23.391 66.2198 23.664 65.9818 23.874C65.7438 24.084 65.3938 24.189 64.9318 24.189C64.4698 24.189 64.0918 24.091 63.7978 23.895C63.5178 23.699 63.2658 23.398 63.0418 22.992L61.0258 19.275C60.8158 18.883 60.5568 18.617 60.2488 18.477C59.9548 18.337 59.5908 18.267 59.1568 18.267H57.5608V22.509C57.5608 23.041 57.4208 23.454 57.1408 23.748C56.8748 24.042 56.4758 24.189 55.9438 24.189ZM57.5608 15.915H60.4798C61.3478 15.915 61.9988 15.74 62.4328 15.39C62.8808 15.04 63.1048 14.515 63.1048 13.815C63.1048 13.129 62.8808 12.611 62.4328 12.261C61.9988 11.911 61.3478 11.736 60.4798 11.736H57.5608V15.915ZM69.0608 24.189C68.6688 24.189 68.3468 24.098 68.0948 23.916C67.8568 23.734 67.7028 23.489 67.6328 23.181C67.5768 22.873 67.6398 22.53 67.8218 22.152L73.1978 10.371C73.4218 9.895 73.6878 9.552 73.9958 9.342C74.3038 9.118 74.6608 9.006 75.0668 9.006C75.4728 9.006 75.8298 9.118 76.1378 9.342C76.4458 9.552 76.7048 9.895 76.9148 10.371L82.3328 22.152C82.5148 22.53 82.5778 22.88 82.5218 23.202C82.4798 23.51 82.3398 23.755 82.1018 23.937C81.8638 24.105 81.5558 24.189 81.1778 24.189C80.7018 24.189 80.3308 24.077 80.0648 23.853C79.8128 23.629 79.5888 23.279 79.3928 22.803L78.1328 19.884L79.4348 20.787H70.6778L71.9798 19.884L70.7408 22.803C70.5308 23.293 70.3068 23.65 70.0688 23.874C69.8448 24.084 69.5088 24.189 69.0608 24.189ZM75.0248 12.66L72.3368 19.065L71.7698 18.246H78.3428L77.7758 19.065L75.0668 12.66H75.0248ZM89.2928 24.189C88.8448 24.189 88.4738 24.091 88.1798 23.895C87.8998 23.685 87.6688 23.37 87.4868 22.95L82.1948 11.19C81.9988 10.77 81.9428 10.399 82.0268 10.077C82.1108 9.741 82.2858 9.482 82.5518 9.3C82.8178 9.104 83.1398 9.006 83.5178 9.006C83.9938 9.006 84.3578 9.118 84.6098 9.342C84.8618 9.552 85.0718 9.867 85.2398 10.287L89.8808 21.018H88.8308L93.4718 10.266C93.6538 9.846 93.8708 9.531 94.1228 9.321C94.3748 9.111 94.7248 9.006 95.1728 9.006C95.5508 9.006 95.8588 9.104 96.0968 9.3C96.3488 9.482 96.5028 9.741 96.5588 10.077C96.6288 10.399 96.5728 10.77 96.3908 11.19L91.0988 22.95C90.9028 23.37 90.6648 23.685 90.3848 23.895C90.1188 24.091 89.7548 24.189 89.2928 24.189ZM100.036 24.189C99.5036 24.189 99.0976 24.042 98.8176 23.748C98.5376 23.454 98.3976 23.041 98.3976 22.509V10.686C98.3976 10.154 98.5376 9.741 98.8176 9.447C99.0976 9.153 99.5036 9.006 100.036 9.006C100.554 9.006 100.953 9.153 101.233 9.447C101.513 9.741 101.653 10.154 101.653 10.686V22.509C101.653 23.041 101.513 23.454 101.233 23.748C100.967 24.042 100.568 24.189 100.036 24.189Z" fill="white" fill-opacity="0.6"/>
<circle cx="15.6706" cy="13.8368" r="4.08438" fill="white" fill-opacity="0.6"/>
<circle cx="7.21006" cy="23.464" r="5.71006" stroke="white" stroke-opacity="0.6" stroke-width="2"/>
<path d="M16.254 22.0055C17.8697 22.0055 19.449 21.5264 20.7924 20.6288C22.1357 19.7312 23.1827 18.4554 23.801 16.9628C24.4193 15.4701 24.581 13.8277 24.2658 12.2431C23.9506 10.6585 23.1726 9.20297 22.0302 8.06055C20.8878 6.91813 19.4323 6.14013 17.8477 5.82493C16.2631 5.50974 14.6206 5.67151 13.128 6.28978C11.6353 6.90806 10.3595 7.95507 9.46195 9.29841C8.56436 10.6418 8.08527 12.2211 8.08527 13.8367" stroke="white" stroke-opacity="0.6" stroke-width="2" stroke-linecap="round"/>
<path d="M16.2541 26.6733C18.7929 26.6733 21.2747 25.9204 23.3857 24.5099C25.4967 23.0994 27.142 21.0946 28.1136 18.749C29.0851 16.4034 29.3393 13.8224 28.844 11.3323M18.7584 1.24666C16.2683 0.751354 13.6873 1.00556 11.3417 1.97714C8.9961 2.94871 6.99129 4.59401 5.58078 6.70499C4.17028 8.81596 3.41742 11.2978 3.41742 13.8366" stroke="white" stroke-opacity="0.6" stroke-width="2" stroke-linecap="round"/>
<circle cx="25.5897" cy="4.50094" r="1.75045" fill="white" fill-opacity="0.6"/>
</svg>
