<svg width="158" height="53" viewBox="0 0 158 53" fill="none" xmlns="http://www.w3.org/2000/svg">
<circle cx="26" cy="25" r="7" fill="white" fill-opacity="0.6"/>
<circle cx="11.5" cy="41.5" r="9" stroke="white" stroke-opacity="0.6" stroke-width="5"/>
<path d="M27 39C29.7689 39 32.4757 38.1789 34.778 36.6406C37.0803 35.1022 38.8747 32.9157 39.9343 30.3576C40.9939 27.7994 41.2712 24.9845 40.731 22.2687C40.1908 19.553 38.8574 17.0584 36.8995 15.1005C34.9416 13.1426 32.447 11.8092 29.7313 11.269C27.0155 10.7288 24.2006 11.0061 21.6424 12.0657C19.0843 13.1253 16.8978 14.9197 15.3594 17.222C13.8211 19.5243 13 22.2311 13 25" stroke="white" stroke-opacity="0.6" stroke-width="5" stroke-linecap="round"/>
<path d="M27 47C31.3512 47 35.6047 45.7097 39.2225 43.2923C42.8404 40.8749 45.6602 37.439 47.3253 33.419C48.9905 29.3991 49.4261 24.9756 48.5773 20.708M31.292 3.42273C27.0244 2.57386 22.6009 3.00953 18.581 4.67466C14.561 6.33979 11.1251 9.15958 8.70767 12.7775C6.29028 16.3953 5 20.6488 5 25" stroke="white" stroke-opacity="0.6" stroke-width="5" stroke-linecap="round"/>
<circle cx="43" cy="9" r="3" fill="white" fill-opacity="0.6"/>
<path d="M63.864 35C63.032 35 62.392 34.776 61.944 34.328C61.496 33.88 61.272 33.24 61.272 32.408V15.032C61.272 14.2 61.496 13.56 61.944 13.112C62.392 12.664 63.032 12.44 63.864 12.44H71.608C73.208 12.44 74.5733 12.6747 75.704 13.144C76.8347 13.6133 77.688 14.2853 78.264 15.16C78.8613 16.0347 79.16 17.08 79.16 18.296C79.16 19.64 78.776 20.7813 78.008 21.72C77.24 22.6587 76.184 23.288 74.84 23.608V23.096C76.3973 23.3733 77.6027 23.992 78.456 24.952C79.3307 25.8907 79.768 27.1173 79.768 28.632C79.768 30.6373 79.0747 32.2053 77.688 33.336C76.3013 34.4453 74.392 35 71.96 35H63.864ZM66.008 31.32H71.288C72.568 31.32 73.5067 31.0747 74.104 30.584C74.7013 30.072 75 29.3253 75 28.344C75 27.3627 74.7013 26.6267 74.104 26.136C73.5067 25.6453 72.568 25.4 71.288 25.4H66.008V31.32ZM66.008 21.72H70.744C71.9813 21.72 72.8987 21.4853 73.496 21.016C74.0933 20.5467 74.392 19.8427 74.392 18.904C74.392 17.9867 74.0933 17.2933 73.496 16.824C72.8987 16.3547 71.9813 16.12 70.744 16.12H66.008V21.72ZM86.018 35.288C85.2073 35.288 84.5887 35.064 84.162 34.616C83.7353 34.168 83.522 33.5387 83.522 32.728V14.968C83.522 14.136 83.7353 13.5067 84.162 13.08C84.61 12.6533 85.2393 12.44 86.05 12.44H93.826C96.3433 12.44 98.2847 13.048 99.65 14.264C101.015 15.48 101.698 17.176 101.698 19.352C101.698 20.76 101.389 21.976 100.77 23C100.151 24.024 99.2553 24.8133 98.082 25.368C96.93 25.9227 95.5113 26.2 93.826 26.2L94.082 25.656H95.394C96.29 25.656 97.0687 25.88 97.73 26.328C98.4127 26.7547 98.9993 27.416 99.49 28.312L101.474 31.992C101.773 32.5253 101.911 33.048 101.89 33.56C101.869 34.072 101.677 34.488 101.314 34.808C100.951 35.128 100.418 35.288 99.714 35.288C99.01 35.288 98.434 35.1387 97.986 34.84C97.5593 34.5413 97.1753 34.0827 96.834 33.464L93.762 27.8C93.442 27.2027 93.0473 26.7973 92.578 26.584C92.13 26.3707 91.5753 26.264 90.914 26.264H88.482V32.728C88.482 33.5387 88.2687 34.168 87.842 34.616C87.4367 35.064 86.8287 35.288 86.018 35.288ZM88.482 22.68H92.93C94.2527 22.68 95.2447 22.4133 95.906 21.88C96.5887 21.3467 96.93 20.5467 96.93 19.48C96.93 18.4347 96.5887 17.6453 95.906 17.112C95.2447 16.5787 94.2527 16.312 92.93 16.312H88.482V22.68ZM106.006 35.288C105.408 35.288 104.918 35.1493 104.534 34.872C104.171 34.5947 103.936 34.2213 103.83 33.752C103.744 33.2827 103.84 32.76 104.118 32.184L112.31 14.232C112.651 13.5067 113.056 12.984 113.526 12.664C113.995 12.3227 114.539 12.152 115.158 12.152C115.776 12.152 116.32 12.3227 116.79 12.664C117.259 12.984 117.654 13.5067 117.974 14.232L126.23 32.184C126.507 32.76 126.603 33.2933 126.518 33.784C126.454 34.2533 126.24 34.6267 125.878 34.904C125.515 35.16 125.046 35.288 124.47 35.288C123.744 35.288 123.179 35.1173 122.774 34.776C122.39 34.4347 122.048 33.9013 121.75 33.176L119.83 28.728L121.814 30.104H108.47L110.454 28.728L108.566 33.176C108.246 33.9227 107.904 34.4667 107.542 34.808C107.2 35.128 106.688 35.288 106.006 35.288ZM115.094 17.72L110.998 27.48L110.134 26.232H120.15L119.286 27.48L115.158 17.72H115.094ZM136.836 35.288C136.153 35.288 135.588 35.1387 135.14 34.84C134.713 34.52 134.361 34.04 134.084 33.4L126.02 15.48C125.721 14.84 125.636 14.2747 125.764 13.784C125.892 13.272 126.158 12.8773 126.564 12.6C126.969 12.3013 127.46 12.152 128.036 12.152C128.761 12.152 129.316 12.3227 129.7 12.664C130.084 12.984 130.404 13.464 130.66 14.104L137.732 30.456H136.132L143.204 14.072C143.481 13.432 143.812 12.952 144.196 12.632C144.58 12.312 145.113 12.152 145.796 12.152C146.372 12.152 146.841 12.3013 147.204 12.6C147.588 12.8773 147.822 13.272 147.908 13.784C148.014 14.2747 147.929 14.84 147.652 15.48L139.588 33.4C139.289 34.04 138.926 34.52 138.5 34.84C138.094 35.1387 137.54 35.288 136.836 35.288ZM153.206 35.288C152.395 35.288 151.776 35.064 151.35 34.616C150.923 34.168 150.71 33.5387 150.71 32.728V14.712C150.71 13.9013 150.923 13.272 151.35 12.824C151.776 12.376 152.395 12.152 153.206 12.152C153.995 12.152 154.603 12.376 155.03 12.824C155.456 13.272 155.67 13.9013 155.67 14.712V32.728C155.67 33.5387 155.456 34.168 155.03 34.616C154.624 35.064 154.016 35.288 153.206 35.288Z" fill="white" fill-opacity="0.6"/>
</svg>