<svg width="216" height="40" viewBox="0 0 216 40" fill="none" xmlns="http://www.w3.org/2000/svg">
<path d="M57.707 40.0001V9.33475H62.9314V12.0112C63.7095 11.0425 64.7015 10.259 65.8328 9.71956C66.9641 9.18012 68.2054 8.89872 69.4636 8.89648C75.4255 8.89648 79.9123 13.4598 79.9123 19.987C79.9123 26.5142 75.4255 31.0775 69.4636 31.0775C68.2054 31.0753 66.9641 30.7939 65.8328 30.2545C64.7015 29.715 63.7095 28.9315 62.9314 27.9628V39.9867L57.707 40.0001ZM74.688 20.0004C74.688 16.1597 72.1611 13.6003 68.808 13.6003C65.4548 13.6003 62.9314 16.1597 62.9314 20.0004C62.9314 23.8411 65.4548 26.3971 68.808 26.3971C72.1611 26.3971 74.6914 23.8377 74.6914 20.0004H74.688Z" fill="white" fill-opacity="0.6"/>
<path d="M87.2257 21.7036C87.7925 24.8183 89.8823 26.6081 93.1023 26.6081C95.4105 26.6081 96.7593 25.755 97.4559 24.2663H103.121C101.813 28.7025 98.0262 31.0912 92.8769 31.0912C86.6486 31.0912 82.0764 26.5278 82.0764 20.0007C82.0764 13.4735 86.6486 8.91016 92.8769 8.91016C99.1052 8.91016 103.674 13.4735 103.674 20.0007C103.674 20.5962 103.63 21.1515 103.585 21.7069L87.2257 21.7036ZM87.2701 18.077H98.5008C97.9374 15.0927 95.933 13.3932 92.8871 13.3932C89.8413 13.3932 87.8335 15.0994 87.2701 18.077Z" fill="white" fill-opacity="0.6"/>
<path d="M117.179 26.3958C117.991 26.3928 118.798 26.264 119.569 26.0144V30.5778C118.454 30.9077 117.296 31.0801 116.131 31.0897C111.818 31.0897 108.684 29.4169 108.684 23.7094V13.8132H105.204V9.33351H108.687V3.46875H113.911V9.33351H119.573V13.8132H113.911V23.3681C113.911 25.4725 114.915 26.3958 117.179 26.3958Z" fill="white" fill-opacity="0.6"/>
<path d="M122.4 24.9487C122.4 15.7786 136.551 19.8735 136.551 15.608C136.551 13.9352 134.809 12.9616 132.545 12.9616C130.155 12.9616 128.495 14.1995 128.495 16.5882H123.056C123.056 11.0413 127.669 8.91016 132.545 8.91016C137.326 8.91016 141.765 10.8305 141.765 15.8187V30.663H136.643V27.5081C135.25 30.024 132.723 31.0912 129.718 31.0912C125.972 31.0912 122.4 29.2578 122.4 24.9487ZM130.804 26.8122C133.853 26.8122 136.639 25.106 136.639 21.8641V20.8839C133.156 22.289 127.761 21.8641 127.761 24.5941C127.758 26.0996 129.073 26.8122 130.804 26.8122Z" fill="white" fill-opacity="0.6"/>
<path d="M168.767 19.9997C168.767 26.5269 164.28 31.0903 158.318 31.0903C157.06 31.0875 155.819 30.8059 154.687 30.2665C153.556 29.7271 152.564 28.9439 151.786 27.9755V30.652H146.561V0H151.786V12.0239C152.564 11.0556 153.556 10.2724 154.687 9.73296C155.819 9.19356 157.06 8.91194 158.318 8.90922C164.28 8.90922 168.767 13.4726 168.767 19.9997ZM151.786 19.9997C151.786 23.8371 154.312 26.3964 157.662 26.3964C161.012 26.3964 163.559 23.8371 163.559 19.9997C163.559 16.1624 161.032 13.5997 157.679 13.5997C154.326 13.5997 151.786 16.159 151.786 19.9997Z" fill="white" fill-opacity="0.6"/>
<path d="M170.944 19.9987C170.944 13.4715 175.687 8.9082 182.045 8.9082C188.403 8.9082 193.146 13.4715 193.146 19.9987C193.146 26.5259 188.399 31.0892 182.045 31.0892C175.69 31.0892 170.944 26.5259 170.944 19.9987ZM187.921 19.9987C187.921 16.158 185.398 13.5987 182.045 13.5987C178.692 13.5987 176.168 16.158 176.168 19.9987C176.168 23.8394 178.692 26.3954 182.045 26.3954C185.398 26.3954 187.921 23.8361 187.921 19.9987Z" fill="white" fill-opacity="0.6"/>
<path d="M193.361 30.6619L201.591 19.6584L193.798 9.33398H199.894L204.899 15.9481L209.472 9.33398H215.567L207.774 19.7855L216 30.6619H209.905L204.421 23.4121L199.456 30.6619H193.361Z" fill="white" fill-opacity="0.6"/>
<path d="M13.2488 26.575H31.6878V32.2825H12.74C11.0667 32.2825 9.40972 31.9595 7.86381 31.332C6.3179 30.7045 4.91331 29.7848 3.73025 28.6253C2.54719 27.4659 1.60884 26.0895 0.968795 24.5747C0.328752 23.0599 -0.000448035 21.4363 4.57642e-07 19.7969H6.34097C6.33962 20.6865 6.5173 21.5677 6.86385 22.39C7.2104 23.2123 7.719 23.9596 8.36058 24.5891C9.00217 25.2186 9.76413 25.7181 10.6029 26.0588C11.4417 26.3996 12.3408 26.575 13.2488 26.575Z" fill="white" fill-opacity="0.6"/>
<path d="M38.0074 26.5757H31.6835C31.6828 24.8727 31.0268 23.2326 29.8464 21.9824C28.6661 20.7323 27.0481 19.9641 25.3152 19.8311C25.2428 18.2392 24.5471 16.7358 23.3729 15.6334C22.1986 14.5309 20.6359 13.9141 19.0095 13.9111C17.3832 13.9081 15.8181 14.5191 14.6396 15.6172C13.4611 16.7153 12.7596 18.2161 12.6811 19.8077H6.34009C6.4987 17.0585 7.58541 14.4388 9.42934 12.3607C11.2733 10.2826 13.7698 8.86392 16.5265 8.32764C19.2831 7.79137 22.1435 8.16797 24.6579 9.39822C27.1723 10.6285 29.198 12.6426 30.4166 15.1239C32.6774 16.1119 34.5975 17.7206 35.9446 19.7553C37.2918 21.7901 38.0082 24.1638 38.0074 26.5891V26.5757Z" fill="white" fill-opacity="0.6"/>
</svg>