<svg width="109" height="20" viewBox="0 0 109 20" fill="none" xmlns="http://www.w3.org/2000/svg">
<path d="M28.9651 20V4.38977H31.7228V5.75221C32.1335 5.25909 32.6571 4.86026 33.2542 4.58565C33.8514 4.31105 34.5066 4.16781 35.1707 4.16667C38.3177 4.16667 40.686 6.48964 40.686 9.81231C40.686 13.135 38.3177 15.4579 35.1707 15.4579C34.5066 15.4568 33.8514 15.3136 33.2542 15.039C32.6571 14.7644 32.1335 14.3655 31.7228 13.8724V19.9932L28.9651 20ZM37.9284 9.81912C37.9284 7.86401 36.5946 6.56117 34.8247 6.56117C33.0547 6.56117 31.7228 7.86401 31.7228 9.81912C31.7228 11.7742 33.0547 13.0754 34.8247 13.0754C36.5946 13.0754 37.9302 11.7725 37.9302 9.81912H37.9284Z" fill="white" fill-opacity="0.6"/>
<path d="M44.1181 10.415C44.4038 11.9363 45.4569 12.8105 47.0795 12.8105C48.2428 12.8105 48.9225 12.3938 49.2735 11.6667H52.1282C51.4692 13.8333 49.5609 15 46.966 15C43.8273 15 41.5233 12.7712 41.5233 9.58333C41.5233 6.39542 43.8273 4.16667 46.966 4.16667C50.1046 4.16667 52.407 6.39542 52.407 9.58333C52.407 9.87418 52.3846 10.1454 52.3622 10.4167L44.1181 10.415ZM44.1405 8.64379H49.8C49.5161 7.18627 48.506 6.35621 46.9711 6.35621C45.4362 6.35621 44.4244 7.18954 44.1405 8.64379Z" fill="white" fill-opacity="0.6"/>
<path d="M59.5239 12.7342C59.9498 12.7327 60.3728 12.6705 60.7773 12.5501V14.7529C60.1923 14.9122 59.5852 14.9954 58.9741 15C56.7126 15 55.0688 14.1925 55.0688 11.4373V6.66021H53.2442V4.49774H55.0706V1.66667H57.8102V4.49774H60.7791V6.66021H57.8102V11.2726C57.8102 12.2884 58.3367 12.7342 59.5239 12.7342Z" fill="white" fill-opacity="0.6"/>
<path d="M61.6163 12C61.6163 7.52124 68.9576 9.52124 68.9576 7.43791C68.9576 6.62091 68.0541 6.14543 66.8796 6.14543C65.6395 6.14543 64.7785 6.75 64.7785 7.91667H61.9564C61.9564 5.20752 64.3498 4.16667 66.8796 4.16667C69.3598 4.16667 71.6628 5.10457 71.6628 7.54085V14.7908H69.0055V13.25C68.2827 14.4788 66.9717 15 65.4127 15C63.4693 15 61.6163 14.1046 61.6163 12ZM65.9761 12.9101C67.5581 12.9101 69.0037 12.0768 69.0037 10.4935V10.0147C67.1967 10.701 64.3976 10.4935 64.3976 11.8268C64.3959 12.5621 65.0779 12.9101 65.9761 12.9101Z" fill="white" fill-opacity="0.6"/>
<path d="M85.0581 9.6492C85.0581 12.7983 82.859 15 79.9368 15C79.3201 14.9987 78.7118 14.8628 78.1573 14.6026C77.6029 14.3423 77.1166 13.9645 76.7351 13.4973V14.7886H74.1744V0H76.7351V5.80114C77.1166 5.33394 77.6029 4.95607 78.1573 4.69583C78.7118 4.43558 79.3201 4.29971 79.9368 4.2984C82.859 4.2984 85.0581 6.50005 85.0581 9.6492ZM76.7351 9.6492C76.7351 11.5006 77.9736 12.7354 79.6154 12.7354C81.2573 12.7354 82.5058 11.5006 82.5058 9.6492C82.5058 7.79781 81.2673 6.56139 79.6238 6.56139C77.9803 6.56139 76.7351 7.79619 76.7351 9.6492Z" fill="white" fill-opacity="0.6"/>
<path d="M85.8953 9.58333C85.8953 6.39542 88.2204 4.16667 91.3372 4.16667C94.454 4.16667 96.7791 6.39542 96.7791 9.58333C96.7791 12.7712 94.4523 15 91.3372 15C88.2221 15 85.8953 12.7712 85.8953 9.58333ZM94.218 9.58333C94.218 7.70752 92.981 6.45751 91.3372 6.45751C89.6934 6.45751 88.4564 7.70752 88.4564 9.58333C88.4564 11.4592 89.6934 12.7075 91.3372 12.7075C92.981 12.7075 94.218 11.4575 94.218 9.58333Z" fill="white" fill-opacity="0.6"/>
<path d="M96.7791 15L101.04 9.41085L97.0054 4.16667H100.161L102.753 7.52628L105.12 4.16667H108.275L104.241 9.47543L108.5 15H105.344L102.505 11.3175L99.9347 15H96.7791Z" fill="white" fill-opacity="0.6"/>
<path d="M7.15076 13.1668H16.407V15.8333H6.89536C6.05537 15.8333 5.2236 15.6824 4.44756 15.3893C3.67153 15.0961 2.96644 14.6664 2.37255 14.1247C1.77867 13.583 1.30762 12.9399 0.986327 12.2322C0.665031 11.5245 0.499775 10.766 0.5 10H3.68311C3.68243 10.4156 3.77163 10.8273 3.94559 11.2115C4.11956 11.5957 4.37487 11.9448 4.69694 12.239C5.01901 12.5331 5.40151 12.7664 5.82256 12.9256C6.24361 13.0848 6.69495 13.1668 7.15076 13.1668Z" fill="white" fill-opacity="0.6"/>
<path d="M18.9186 13.3267H15.9092C15.9089 12.4828 15.5967 11.6701 15.035 11.0506C14.4733 10.4312 13.7033 10.0505 12.8787 9.98463C12.8442 9.19582 12.5132 8.45089 11.9544 7.9046C11.3955 7.35831 10.6519 7.05266 9.87795 7.05117C9.10399 7.04967 8.35923 7.35245 7.79839 7.89658C7.23755 8.44071 6.90376 9.18436 6.86636 9.97303H3.84884C3.92432 8.61074 4.44146 7.31269 5.31894 6.28296C6.19643 5.25323 7.38449 4.55023 8.69632 4.2845C10.0082 4.01877 11.3694 4.20538 12.5659 4.81499C13.7624 5.42459 14.7264 6.42262 15.3063 7.65215C16.3822 8.14171 17.2959 8.93884 17.937 9.9471C18.5781 10.9554 18.919 12.1315 18.9186 13.3333V13.3267Z" fill="white" fill-opacity="0.6"/>
</svg>
