<svg width="138" height="20" viewBox="0 0 138 20" fill="none" xmlns="http://www.w3.org/2000/svg">
<path d="M10.3499 12.4858C10.3496 12.7817 10.4077 13.0747 10.5208 13.3481C10.6339 13.6216 10.7998 13.87 11.009 14.0793C11.2182 14.2885 11.4666 14.4545 11.74 14.5677C12.0133 14.6809 12.3064 14.7391 12.6022 14.739H24.8064C25.398 14.7391 25.9839 14.6227 26.5305 14.3964C27.0771 14.17 27.5737 13.8382 27.992 13.4199C28.4104 13.0015 28.7422 12.5049 28.9685 11.9583C29.1949 11.4117 29.3113 10.8259 29.3112 10.2343H12.6022C12.3065 10.2341 12.0136 10.2923 11.7404 10.4054C11.4671 10.5185 11.2188 10.6843 11.0096 10.8934C10.8004 11.1025 10.6345 11.3507 10.5213 11.624C10.4081 11.8972 10.3499 12.19 10.3499 12.4858Z" fill="url(#paint0_linear_168_3616)"/>
<path d="M10.8261 5.42672C10.4787 5.42695 10.1455 5.28924 9.89969 5.04388C9.65386 4.79852 9.51551 4.46558 9.51506 4.11825V1.44719C9.51483 1.40218 9.49958 1.35854 9.47173 1.32317C9.44388 1.28781 9.40503 1.26276 9.36133 1.25198C9.31763 1.2412 9.27158 1.24531 9.23048 1.26367C9.18938 1.28202 9.15558 1.31357 9.13445 1.35331C8.5593 2.47654 7.39969 3.80615 5.62096 4.81182C4.94627 5.17609 4.23119 5.45997 3.49036 5.65763C0.686505 6.46284 -0.0747224 9.17788 0.00562943 10.3028C3.45315 9.20326 5.127 11.3347 5.60235 13.7656C5.90154 15.3888 6.76005 16.856 8.02868 17.912C9.2973 18.9679 10.8958 19.5461 12.5464 19.5458H15.0949C15.6233 19.5461 16.1466 19.4424 16.635 19.2404C17.1233 19.0385 17.5671 18.7423 17.941 18.3688C18.3148 17.9954 18.6115 17.5519 18.8139 17.0638C19.0164 16.5757 19.1207 16.0524 19.1209 15.524H12.6606C12.2624 15.5315 11.8665 15.4606 11.4957 15.3152C11.1249 15.1697 10.7863 14.9527 10.4994 14.6764C10.2124 14.4001 9.9827 14.0701 9.82332 13.705C9.66393 13.34 9.57801 12.9471 9.57046 12.5489C9.56291 12.1506 9.63387 11.7548 9.7793 11.3839C9.92472 11.0131 10.1418 10.6746 10.418 10.3876C10.6943 10.1007 11.0244 9.87093 11.3894 9.71155C11.7545 9.55217 12.1473 9.46625 12.5456 9.45869C12.5837 9.45869 12.6226 9.45869 12.6606 9.45869H28.2548C29.3227 9.45824 30.3468 9.0337 31.1018 8.2784C31.8567 7.5231 32.2809 6.49888 32.2809 5.43095L10.8261 5.42672Z" fill="url(#paint1_linear_168_3616)"/>
<path d="M94.2888 10.0804C94.1816 9.03822 93.6918 8.07282 92.9141 7.37088C92.1364 6.66893 91.126 6.28031 90.0784 6.28015V19.6093H94.3074V10.5151C94.3073 10.3705 94.3 10.226 94.2854 10.0821L94.2888 10.0804Z" fill="#F2F1EB"/>
<path d="M80.9148 5.89282C79.3315 5.89282 78.1473 6.4925 77.3624 7.69186V6.28189H73.1309V19.6169H77.365V12.7033C77.365 11.6883 77.5234 10.8873 77.8403 10.3003C77.8849 10.2163 77.9343 10.135 77.9883 10.0567C78.3757 9.49287 79.0126 9.19204 79.899 9.15426H80.0792C80.9374 9.15426 81.5785 9.38517 82.0026 9.84698C82.0638 9.91403 82.1203 9.98525 82.1717 10.0601C82.5585 10.6184 82.7641 11.4264 82.7883 12.4842V19.6169H87.0174V12.699C87.0174 10.4915 86.531 8.80522 85.5583 7.64026C84.5856 6.4753 83.0378 5.89282 80.9148 5.89282Z" fill="#F2F1EB"/>
<path d="M51.7277 4.79315C52.2188 4.79315 52.7051 4.6964 53.1589 4.50843C53.6126 4.32045 54.0248 4.04494 54.3721 3.69762C54.7193 3.35031 54.9947 2.93799 55.1826 2.48421C55.3705 2.03044 55.4671 1.5441 55.467 1.05298H41.7065V19.6092H46.0058V12.2718H51.1711C51.6622 12.272 52.1484 12.1755 52.6021 11.9878C53.0558 11.8001 53.4681 11.5248 53.8154 11.1777C54.1628 10.8306 54.4383 10.4185 54.6263 9.96494C54.8144 9.51136 54.9112 9.02517 54.9113 8.53416H46.0058V4.79315H51.7277Z" fill="#F2F1EB"/>
<path d="M63.8845 5.89277C62.9494 5.88254 62.0181 6.01371 61.1221 6.28184C60.3685 6.49431 59.6629 6.85012 59.044 7.3298C57.9319 8.21275 57.1389 9.43497 56.7857 10.8103C56.6117 11.5084 56.5265 12.2257 56.5319 12.9451C56.5242 13.8462 56.664 14.7424 56.9455 15.5984C57.2197 16.4162 57.6442 17.1755 58.1973 17.8373C58.7657 18.5015 59.5359 19.0276 60.5081 19.4156C61.4802 19.8035 62.6057 19.9978 63.8845 19.9983C66.4862 19.9983 68.6008 19.3428 70.2281 18.0318L69.5785 17.2951C68.8477 16.4628 67.6814 16.0585 66.6402 16.4315C65.7554 16.735 64.8249 16.8835 63.8896 16.8705C63.409 16.8805 62.9297 16.8149 62.4695 16.676C62.1227 16.5694 61.8079 16.3781 61.5535 16.1194C61.3479 15.9021 61.1857 15.6474 61.0756 15.3692C60.9802 15.0946 60.9325 14.8057 60.9344 14.5149H70.9893C71.2476 11.8084 70.757 9.69383 69.5176 8.17138C68.2782 6.64892 66.4005 5.88938 63.8845 5.89277ZM60.9453 11.7678C60.9444 11.456 60.9926 11.146 61.0883 10.8492C61.1898 10.534 61.3421 10.2374 61.5391 9.97126C61.781 9.66678 62.0974 9.42993 62.4577 9.28362C62.9114 9.10392 63.3967 9.01762 63.8845 9.02987C64.3725 9.0155 64.8583 9.10188 65.3114 9.28362C65.6731 9.42496 65.9894 9.66209 66.2266 9.96957C66.6226 10.485 66.8354 11.1178 66.8313 11.7678H60.9453Z" fill="#F2F1EB"/>
<path d="M115.351 13.1946C115.351 14.3584 115.144 15.2403 114.729 15.8403C114.315 16.4402 113.617 16.7399 112.634 16.7394C111.65 16.7394 110.952 16.4397 110.538 15.8403C110.125 15.2409 109.918 14.359 109.917 13.1946V6.28772H105.673V13.1946C105.673 15.4022 106.161 17.0881 107.136 18.2525C108.111 19.4169 109.663 19.9994 111.793 20C113.38 20 114.566 19.4003 115.351 18.2009V19.6117H119.597V6.28772H115.351V13.1946Z" fill="#F2F1EB"/>
<path d="M132.063 12.6397L136.552 6.28772H131.778L129.333 9.89679L126.888 6.28772H122.113L126.603 12.6397L121.648 19.6134H126.422L129.333 15.3954L132.244 19.6134H137.017L132.063 12.6397Z" fill="#F2F1EB"/>
<path d="M102.037 4.24342C102.037 3.118 101.59 2.03867 100.794 1.24287C99.9986 0.447074 98.9192 0 97.7938 0V19.6092H102.042V15.3658H102.037V4.24342Z" fill="#F2F1EB"/>
<defs>
<linearGradient id="paint0_linear_168_3616" x1="26.9345" y1="15.8217" x2="4.32685" y2="3.77566" gradientUnits="userSpaceOnUse">
<stop stop-color="#FC883A"/>
<stop offset="0.96" stop-color="#F2542A"/>
</linearGradient>
<linearGradient id="paint1_linear_168_3616" x1="27.3921" y1="15.6094" x2="3.35757" y2="2.80218" gradientUnits="userSpaceOnUse">
<stop stop-color="#FC883A"/>
<stop offset="1" stop-color="#F2542A"/>
</linearGradient>
</defs>
</svg>
