<svg width="297" height="32" viewBox="0 0 297 32" fill="none" xmlns="http://www.w3.org/2000/svg">
<g clip-path="url(#clip0_91_2294)">
<path d="M18.496 19.3059C18.4957 19.7525 18.5834 20.1948 18.7539 20.6074C18.9244 21.0201 19.1744 21.3951 19.4897 21.711C19.8049 22.0269 20.1793 22.2775 20.5913 22.4484C21.0033 22.6194 21.4449 22.7074 21.8909 22.7074H40.2944C42.0956 22.7074 43.8231 21.9908 45.0968 20.7154C46.3705 19.4399 47.086 17.71 47.086 15.9062H21.889C20.989 15.9067 20.1259 16.2651 19.4897 16.9026C18.8534 17.5401 18.496 18.4046 18.496 19.3059Z" fill="url(#paint0_linear_91_2294)"/>
<path d="M18.8013 7.38107C18.511 7.38131 18.2235 7.32423 17.9552 7.21309C17.687 7.10195 17.4432 6.93893 17.2379 6.73336C17.0326 6.52779 16.8699 6.2837 16.7589 6.01506C16.6479 5.74642 16.5909 5.4585 16.5911 5.16778V0.659642C16.5914 0.583256 16.566 0.508992 16.5191 0.44875C16.4722 0.388507 16.4065 0.345775 16.3325 0.327399C16.2584 0.309023 16.1804 0.316068 16.1108 0.347405C16.0412 0.378742 15.9842 0.432557 15.9488 0.500226C14.9788 2.39839 13.0222 4.64875 10.0216 6.34301C8.88356 6.9573 7.67773 7.43633 6.42865 7.77034C1.69912 9.13094 0.41447 13.7169 0.549599 15.617C6.36572 13.7633 9.18862 17.3613 9.99015 21.4671C10.4951 24.209 11.9434 26.687 14.0834 28.4706C16.2233 30.2543 18.9196 31.2308 21.7038 31.2305H26.0021C26.8941 31.2309 27.7775 31.0554 28.6017 30.7137C29.4259 30.3721 30.1748 29.8712 30.8056 29.2395C31.4363 28.6079 31.9366 27.858 32.2777 27.0326C32.6188 26.2072 32.7942 25.3226 32.7937 24.4293H21.8963C21.2164 24.4423 20.5407 24.3193 19.9087 24.0677C19.2767 23.8161 18.7012 23.4408 18.2158 22.9639C17.7303 22.4869 17.3447 21.9178 17.0814 21.2899C16.8182 20.6619 16.6826 19.9877 16.6826 19.3067C16.6826 18.6257 16.8182 17.9515 17.0814 17.3235C17.3447 16.6956 17.7303 16.1265 18.2158 15.6495C18.7012 15.1725 19.2767 14.7973 19.9087 14.5457C20.5407 14.294 21.2164 14.1711 21.8963 14.1841H48.2003C50.0017 14.1836 51.7292 13.4666 53.0028 12.1909C54.2765 10.9151 54.9919 9.18501 54.9919 7.38107H18.8013Z" fill="url(#paint1_linear_91_2294)"/>
<path fill-rule="evenodd" clip-rule="evenodd" d="M92.9503 6.31733C94.6234 6.31733 96.228 5.65175 97.4111 4.46702C98.5942 3.2823 99.2588 1.67546 99.2588 0L76.048 0V31.3438H83.2987V18.9501H92.0137C92.842 18.9504 93.6623 18.7872 94.4277 18.4699C95.1931 18.1526 95.8885 17.6875 96.4743 17.101C97.0602 16.5145 97.5249 15.8183 97.8419 15.0519C98.159 14.2856 98.3222 13.4642 98.3222 12.6347H83.2987V6.31733H92.9503ZM124.156 28.6782L123.06 27.4344C121.827 26.0293 119.86 25.3453 118.103 25.9756C116.611 26.4881 115.041 26.7389 113.464 26.717C112.653 26.7339 111.845 26.6231 111.069 26.3889C110.484 26.2084 109.953 25.8855 109.523 25.4491C109.176 25.0817 108.903 24.6514 108.718 24.1812C108.557 23.7177 108.476 23.2299 108.479 22.739H125.441C125.876 18.1666 125.049 14.5965 122.958 12.0285C120.868 9.46054 117.701 8.17594 113.457 8.17471C111.879 8.15746 110.309 8.37868 108.797 8.83091C107.526 9.19075 106.336 9.79172 105.292 10.6012C103.416 12.0934 102.078 14.1579 101.482 16.481C101.189 17.6601 101.045 18.8714 101.054 20.0864C101.042 21.6086 101.278 23.1225 101.752 24.5686C102.215 25.9498 102.931 27.2323 103.864 28.3501C104.822 29.4722 106.121 30.3607 107.761 31.0157C109.401 31.6707 111.3 31.9988 113.457 32C117.845 32 121.411 30.8927 124.156 28.6782ZM118.19 16.5459C118.35 17.0474 118.431 17.5709 118.429 18.0974H108.499C108.497 17.5708 108.579 17.0471 108.74 16.5459C108.912 16.0136 109.169 15.5128 109.501 15.063C109.909 14.5486 110.442 14.1488 111.05 13.9026C111.815 13.5969 112.633 13.4488 113.457 13.467C114.28 13.4446 115.099 13.5929 115.863 13.9026C116.474 14.1405 117.009 14.5411 117.409 15.0611C117.752 15.5079 118.016 16.0101 118.19 16.5459ZM136.997 15.6191C136.463 16.6077 136.195 17.9609 136.195 19.6786V31.3568H129.054V8.83091H136.195V11.2129C137.517 9.1862 139.513 8.17347 142.184 8.17471C145.769 8.17471 148.381 9.15839 150.021 11.1258C151.661 13.0931 152.482 15.9416 152.483 19.6712V31.3494H145.342V19.6712C145.342 19.5489 145.342 19.4284 145.342 19.3005C145.301 17.5135 144.954 16.1486 144.301 15.2057C144.215 15.0795 144.121 14.9594 144.018 14.8461C143.304 14.0663 142.222 13.6764 140.773 13.6764C140.669 13.6764 140.57 13.6764 140.47 13.6764C138.974 13.7357 137.9 14.2436 137.247 15.2001C137.156 15.3327 137.073 15.4701 136.997 15.6117V15.6191ZM164.743 15.2483C164.562 13.4876 163.735 11.8567 162.423 10.6709C161.111 9.4852 159.406 8.82893 157.638 8.82906V31.3438H164.78V15.9824C164.78 15.7359 164.767 15.4912 164.743 15.2502V15.2483ZM194.469 31.3419H186.436L181.536 24.2164L176.636 31.3419H168.602L176.949 19.5618L169.385 8.83091H177.421L181.536 14.9295L185.649 8.83091H193.683L186.129 19.5618L194.469 31.3419Z" fill="#F2F1EB"/>
<path d="M210.206 24.8001H212.849V31.3399H214.308V24.8001H216.951V23.5767H210.206V24.8001Z" fill="#FF7E49"/>
<path d="M219.383 27.994H223.237V26.7705H219.383V24.8001H223.421V23.5767H217.925V31.3399H223.476V30.1164H219.383V27.994Z" fill="#FF7E49"/>
<path d="M226.578 25.4454C226.8 25.1811 227.084 24.976 227.404 24.8485C227.776 24.7023 228.173 24.6311 228.572 24.639C229.349 24.6265 230.112 24.8487 230.762 25.2767L231.46 24.3128C230.767 23.7147 229.805 23.4156 228.572 23.4156C227.971 23.4065 227.374 23.509 226.81 23.7177C226.32 23.899 225.878 24.1879 225.514 24.563C225.165 24.9292 224.897 25.3642 224.726 25.8402C224.541 26.3594 224.449 26.9073 224.455 27.4585C224.45 28.0114 224.541 28.561 224.726 29.0823C224.899 29.5572 225.167 29.9918 225.514 30.3595C225.879 30.7317 226.321 31.0185 226.81 31.1992C227.374 31.408 227.971 31.5104 228.572 31.5013C229.806 31.5013 230.769 31.2016 231.46 30.6023L230.762 29.6402C230.112 30.0672 229.349 30.2894 228.572 30.2779C228.173 30.2853 227.776 30.2135 227.404 30.0666C227.085 29.9397 226.802 29.7374 226.578 29.4771C226.361 29.2136 226.198 28.9101 226.097 28.5836C225.88 27.8493 225.88 27.0676 226.097 26.3333C226.197 26.0082 226.361 25.7063 226.578 25.4454Z" fill="#FF7E49"/>
<path d="M237.583 26.7705H233.892V23.5767H232.432V31.3399H233.892V27.994H237.583V31.3399H239.042V23.5767H237.583V26.7705Z" fill="#FF7E49"/>
<path d="M245.68 29.3101L242.205 23.5767H240.345V31.3399H241.806V25.6064L245.28 31.3399H247.14V23.5767H245.68V29.3101Z" fill="#FF7E49"/>
<path d="M255.405 24.5631C255.042 24.1879 254.599 23.8991 254.11 23.7178C252.972 23.3167 251.731 23.3167 250.593 23.7178C250.103 23.8991 249.66 24.1879 249.297 24.5631C248.949 24.9319 248.68 25.3686 248.508 25.8458C248.323 26.3629 248.231 26.9091 248.238 27.4585C248.232 28.0115 248.323 28.5613 248.508 29.0823C248.682 29.5573 248.95 29.9918 249.297 30.3595C249.662 30.7317 250.104 31.0185 250.593 31.1992C251.731 31.6003 252.972 31.6003 254.11 31.1992C254.598 31.0185 255.041 30.7317 255.405 30.3595C255.752 29.9925 256.018 29.5576 256.188 29.0823C256.377 28.5619 256.47 28.0119 256.464 27.4585C256.47 26.9087 256.377 26.3624 256.188 25.8458C256.02 25.3682 255.753 24.9312 255.405 24.5631ZM254.821 28.5837C254.72 28.9101 254.556 29.2137 254.339 29.4772C254.116 29.7375 253.832 29.9397 253.514 30.0666C252.76 30.3489 251.931 30.3489 251.178 30.0666C250.858 29.9397 250.575 29.7375 250.35 29.4772C250.134 29.2132 249.97 28.9098 249.869 28.5837C249.654 27.849 249.654 27.068 249.869 26.3333C249.97 26.0086 250.133 25.707 250.35 25.4454C250.573 25.1811 250.857 24.9761 251.178 24.8485C251.931 24.5692 252.76 24.5692 253.514 24.8485C253.834 24.9761 254.118 25.1812 254.339 25.4454C254.557 25.7063 254.721 26.0082 254.821 26.3333C255.038 27.0677 255.038 27.8493 254.821 28.5837Z" fill="#FF7E49"/>
<path d="M259.004 23.5767H257.545V31.3399H262.804V30.1164H259.004V23.5767Z" fill="#FF7E49"/>
<path d="M270.681 24.5631C270.317 24.1879 269.874 23.8991 269.385 23.7178C268.247 23.3167 267.006 23.3167 265.868 23.7178C265.378 23.8991 264.935 24.1879 264.572 24.5631C264.224 24.9319 263.956 25.3686 263.783 25.8458C263.599 26.3632 263.507 26.9092 263.513 27.4585C263.508 28.0114 263.599 28.5611 263.783 29.0823C263.957 29.5573 264.225 29.9918 264.572 30.3595C264.937 30.7317 265.379 31.0185 265.868 31.1992C267.006 31.6003 268.247 31.6003 269.385 31.1992C269.873 31.0185 270.316 30.7317 270.681 30.3595C271.027 29.9925 271.293 29.5576 271.464 29.0823C271.652 28.5619 271.745 28.0119 271.739 27.4585C271.745 26.9087 271.652 26.3624 271.464 25.8458C271.295 25.3682 271.028 24.9312 270.681 24.5631ZM270.096 28.5837C269.995 28.9097 269.832 29.2131 269.616 29.4772C269.392 29.7375 269.108 29.9397 268.789 30.0666C268.036 30.3489 267.206 30.3489 266.453 30.0666C266.134 29.9397 265.85 29.7375 265.625 29.4772C265.409 29.2131 265.247 28.9097 265.146 28.5837C264.929 27.8493 264.929 27.0677 265.146 26.3333C265.246 26.0087 265.409 25.7069 265.625 25.4454C265.848 25.1811 266.132 24.9761 266.453 24.8485C267.206 24.5692 268.035 24.5692 268.789 24.8485C269.11 24.9761 269.394 25.1811 269.616 25.4454C269.833 25.7069 269.996 26.0087 270.096 26.3333C270.313 27.0677 270.313 27.8493 270.096 28.5837Z" fill="#FF7E49"/>
<path d="M276.832 28.1128H278.513V29.8942C278.278 30.0343 278.019 30.1298 277.75 30.1759C277.412 30.2456 277.068 30.2798 276.723 30.2779C276.324 30.2853 275.927 30.2135 275.556 30.0666C275.237 29.9397 274.953 29.7375 274.729 29.4771C274.513 29.2132 274.349 28.9098 274.248 28.5836C274.03 27.8493 274.03 27.0676 274.248 26.3333C274.349 26.0086 274.512 25.7069 274.729 25.4454C274.951 25.1811 275.236 24.976 275.556 24.8485C275.928 24.7022 276.324 24.631 276.723 24.639C277.586 24.6204 278.435 24.8655 279.157 25.3416L279.864 24.3999C279.068 23.7437 278.019 23.4156 276.717 23.4156C276.116 23.4065 275.519 23.509 274.955 23.7177C274.465 23.8988 274.022 24.1877 273.659 24.563C273.311 24.9319 273.042 25.3685 272.869 25.8458C272.684 26.3631 272.593 26.9091 272.598 27.4585C272.593 28.0114 272.684 28.561 272.869 29.0823C273.043 29.5573 273.312 29.9918 273.659 30.3595C274.024 30.732 274.466 31.0188 274.955 31.1992C275.519 31.408 276.116 31.5104 276.717 31.5013C277.311 31.5032 277.903 31.4342 278.481 31.2956C278.999 31.1806 279.481 30.9371 279.881 30.5875V26.8894H276.826L276.832 28.1128Z" fill="#FF7E49"/>
<path d="M282.539 23.5767H281.08V31.338H282.539V23.5767Z" fill="#FF7E49"/>
<path d="M285.297 27.994H289.151V26.7705H285.297V24.8001H289.334V23.5767H283.836V31.3399H289.388V30.1164H285.297V27.994Z" fill="#FF7E49"/>
<path d="M295.82 27.6198C295.34 27.2194 294.6 26.9104 293.599 26.6929C293.156 26.6204 292.729 26.4704 292.338 26.2499C292.216 26.1743 292.116 26.0679 292.048 25.9414C291.98 25.8149 291.946 25.6726 291.95 25.5288C291.95 24.927 292.424 24.6261 293.371 24.6261C294.094 24.6068 294.809 24.7863 295.437 25.1451L296.15 24.1219C295.779 23.8676 295.368 23.6794 294.934 23.5658C294.422 23.4456 293.897 23.3896 293.371 23.399C292.934 23.3928 292.497 23.449 292.076 23.5658C291.742 23.653 291.432 23.8118 291.167 24.0311C290.949 24.2173 290.773 24.448 290.652 24.7077C290.539 24.9653 290.483 25.2439 290.485 25.5251C290.481 25.8116 290.54 26.0954 290.658 26.3565C290.776 26.6176 290.949 26.8495 291.167 27.0359C291.62 27.4437 292.344 27.7526 293.34 27.9627C293.81 28.0337 294.261 28.2016 294.663 28.4558C294.787 28.5363 294.888 28.6461 294.959 28.7755C295.03 28.9049 295.068 29.0498 295.069 29.1973C295.081 29.3538 295.054 29.5109 294.989 29.6539C294.924 29.7969 294.824 29.921 294.699 30.0147C294.452 30.1766 294.072 30.2576 293.558 30.2576C292.645 30.2726 291.746 30.027 290.967 29.5495L290.252 30.5727C290.679 30.8916 291.161 31.128 291.674 31.2697C292.289 31.4219 292.922 31.4929 293.556 31.481C293.956 31.4856 294.355 31.4421 294.745 31.3512C295.078 31.274 295.396 31.1405 295.685 30.9564C295.954 30.7781 296.17 30.5319 296.313 30.2427C296.466 29.9161 296.543 29.5583 296.535 29.1973C296.544 28.8971 296.484 28.5989 296.36 28.3254C296.237 28.052 296.052 27.8106 295.82 27.6198Z" fill="#FF7E49"/>
<path d="M211.649 13.5668H215.503V12.3434H211.649V10.3748H215.689V9.15137H210.191V16.9127H211.649V13.5668Z" fill="#FF7E49"/>
<path d="M222.434 15.6893H218.341V13.5668H222.195V12.3434H218.341V10.3748H222.38V9.15137H216.882V16.9127H222.434V15.6893Z" fill="#FF7E49"/>
<path d="M225.088 11.1811L228.563 16.9127H230.423V9.15137H228.963V14.8829L225.488 9.15137H223.628V16.9127H225.088V11.1811Z" fill="#FF7E49"/>
<path d="M234.505 9.15137L231.24 16.9127H232.757L233.498 15.1054H236.709L237.45 16.9127H238.96L235.695 9.15137H234.505ZM233.99 13.8764L235.101 11.1589L236.212 13.8764H233.99Z" fill="#FF7E49"/>
<path d="M241.239 11.1811L244.715 16.9127H246.574V9.15137H245.115V14.8829L241.639 9.15137H239.779V16.9127H241.239V11.1811Z" fill="#FF7E49"/>
<path d="M248.719 15.9415C249.084 16.3137 249.527 16.6005 250.015 16.7812C250.579 16.9906 251.176 17.0937 251.777 17.0852C253.011 17.0852 253.973 16.7855 254.663 16.1862L253.967 15.2223C253.318 15.6508 252.555 15.8736 251.777 15.8618C251.378 15.8692 250.981 15.7974 250.609 15.6505C250.29 15.5236 250.007 15.3206 249.784 15.0591C249.567 14.7963 249.403 14.4934 249.302 14.1675C249.085 13.4325 249.085 12.6503 249.302 11.9153C249.402 11.5902 249.566 11.2883 249.784 11.0274C250.006 10.7643 250.29 10.5599 250.609 10.4324C250.981 10.2855 251.378 10.2136 251.777 10.2211C252.555 10.2096 253.317 10.4317 253.967 10.8587L254.663 9.89666C253.972 9.2973 253.01 8.99763 251.777 8.99763C251.176 8.98854 250.579 9.09098 250.015 9.29977C249.526 9.48105 249.083 9.76988 248.719 10.1451C248.371 10.5115 248.103 10.9464 247.931 11.4222C247.57 12.4728 247.57 13.6137 247.931 14.6643C248.104 15.1394 248.372 15.5741 248.719 15.9415Z" fill="#FF7E49"/>
<path d="M257.097 9.15137H255.639V16.9127H257.097V9.15137Z" fill="#FF7E49"/>
<path d="M260.163 15.1054H263.374L264.115 16.9127H265.633L262.369 9.15137H261.174L257.91 16.9127H259.428L260.163 15.1054ZM261.77 11.1589L262.88 13.8764H260.659L261.77 11.1589Z" fill="#FF7E49"/>
<path d="M267.91 9.15137H266.449V16.9127H271.71V15.6893H267.91V9.15137Z" fill="#FF7E49"/>
</g>
<defs>
<linearGradient id="paint0_linear_91_2294" x1="43.5005" y1="24.3423" x2="9.39164" y2="6.19362" gradientUnits="userSpaceOnUse">
<stop stop-color="#FC883A"/>
<stop offset="0.96" stop-color="#F2542A"/>
</linearGradient>
<linearGradient id="paint1_linear_91_2294" x1="46.7435" y1="24.5832" x2="6.17779" y2="2.99783" gradientUnits="userSpaceOnUse">
<stop stop-color="#FC883A"/>
<stop offset="1" stop-color="#F2542A"/>
</linearGradient>
<clipPath id="clip0_91_2294">
<rect width="296" height="32" fill="white" transform="translate(0.540344)"/>
</clipPath>
</defs>
</svg>
