<svg width="296" height="32" viewBox="0 0 296 32" fill="none" xmlns="http://www.w3.org/2000/svg">
<g clip-path="url(#clip0_50_61715)">
<path d="M17.9556 19.3059C17.9553 19.7525 18.043 20.1948 18.2135 20.6074C18.384 21.0201 18.634 21.3951 18.9493 21.711C19.2645 22.0269 19.6389 22.2775 20.0509 22.4484C20.4629 22.6194 20.9045 22.7074 21.3505 22.7074H39.754C41.5552 22.7074 43.2827 21.9908 44.5564 20.7154C45.8301 19.4399 46.5456 17.71 46.5456 15.9062H21.3486C20.4485 15.9067 19.5855 16.2651 18.9493 16.9026C18.313 17.5401 17.9556 18.4046 17.9556 19.3059Z" fill="url(#paint0_linear_50_61715)"/>
<path d="M18.2609 7.38107C17.9706 7.38131 17.6831 7.32423 17.4148 7.21309C17.1466 7.10195 16.9028 6.93893 16.6975 6.73336C16.4922 6.52779 16.3295 6.2837 16.2185 6.01506C16.1075 5.74642 16.0505 5.4585 16.0507 5.16778V0.659642C16.051 0.583256 16.0256 0.508992 15.9787 0.44875C15.9318 0.388507 15.8661 0.345775 15.7921 0.327399C15.718 0.309023 15.64 0.316068 15.5704 0.347405C15.5008 0.378742 15.4438 0.432557 15.4084 0.500226C14.4384 2.39839 12.4818 4.64875 9.48121 6.34301C8.34316 6.9573 7.13733 7.43633 5.88825 7.77034C1.15872 9.13094 -0.125936 13.7169 0.00919384 15.617C5.82531 13.7633 8.64822 17.3613 9.44974 21.4671C9.95474 24.209 11.403 26.687 13.543 28.4706C15.6829 30.2543 18.3792 31.2308 21.1634 31.2305H25.4616C26.3537 31.2309 27.2371 31.0554 28.0613 30.7137C28.8855 30.3721 29.6344 29.8712 30.2652 29.2395C30.8959 28.6079 31.3962 27.858 31.7373 27.0326C32.0784 26.2072 32.2538 25.3226 32.2533 24.4293H21.3559C20.676 24.4423 20.0003 24.3193 19.3683 24.0677C18.7363 23.8161 18.1608 23.4408 17.6753 22.9639C17.1899 22.4869 16.8043 21.9178 16.541 21.2899C16.2778 20.6619 16.1422 19.9877 16.1422 19.3067C16.1422 18.6257 16.2778 17.9515 16.541 17.3235C16.8043 16.6956 17.1899 16.1265 17.6753 15.6495C18.1608 15.1725 18.7363 14.7973 19.3683 14.5457C20.0003 14.294 20.676 14.1711 21.3559 14.1841H47.6599C49.4613 14.1836 51.1888 13.4666 52.4624 12.1909C53.736 10.9151 54.4515 9.18501 54.4515 7.38107H18.2609Z" fill="url(#paint1_linear_50_61715)"/>
<path fill-rule="evenodd" clip-rule="evenodd" d="M92.4098 6.31733C94.083 6.31733 95.6876 5.65175 96.8706 4.46702C98.0537 3.2823 98.7183 1.67546 98.7183 0L75.5076 0V31.3438H82.7583V18.9501H91.4732C92.3016 18.9504 93.1218 18.7872 93.8872 18.4699C94.6526 18.1526 95.348 17.6875 95.9339 17.101C96.5197 16.5145 96.9844 15.8183 97.3015 15.0519C97.6185 14.2856 97.7817 13.4642 97.7817 12.6347H82.7583V6.31733H92.4098ZM123.615 28.6782L122.52 27.4344C121.287 26.0293 119.319 25.3453 117.562 25.9756C116.07 26.4881 114.501 26.7389 112.924 26.717C112.113 26.7339 111.305 26.6231 110.528 26.3889C109.943 26.2084 109.412 25.8855 108.983 25.4491C108.636 25.0817 108.363 24.6514 108.177 24.1812C108.016 23.7177 107.935 23.2299 107.939 22.739H124.9C125.336 18.1666 124.508 14.5965 122.418 12.0285C120.327 9.46054 117.16 8.17594 112.916 8.17471C111.339 8.15746 109.768 8.37868 108.257 8.83091C106.986 9.19075 105.796 9.79172 104.751 10.6012C102.876 12.0934 101.538 14.1579 100.942 16.481C100.649 17.6601 100.505 18.8714 100.514 20.0864C100.501 21.6086 100.737 23.1225 101.212 24.5686C101.675 25.9498 102.391 27.2323 103.324 28.3501C104.281 29.4722 105.58 30.3607 107.22 31.0157C108.86 31.6707 110.759 31.9988 112.916 32C117.305 32 120.871 30.8927 123.615 28.6782ZM117.649 16.5459C117.809 17.0474 117.89 17.5709 117.888 18.0974H107.959C107.957 17.5708 108.038 17.0471 108.2 16.5459C108.371 16.0136 108.628 15.5128 108.96 15.063C109.368 14.5486 109.902 14.1488 110.51 13.9026C111.275 13.5969 112.093 13.4488 112.916 13.467C113.74 13.4446 114.559 13.5929 115.323 13.9026C115.934 14.1405 116.468 14.5411 116.868 15.0611C117.211 15.5079 117.475 16.0101 117.649 16.5459ZM136.456 15.6191C135.922 16.6077 135.655 17.9609 135.655 19.6786V31.3568H128.513V8.83091H135.655V11.2129C136.977 9.1862 138.973 8.17347 141.643 8.17471C145.228 8.17471 147.841 9.15839 149.481 11.1258C151.121 13.0931 151.941 15.9416 151.943 19.6712V31.3494H144.801V19.6712C144.801 19.5489 144.801 19.4284 144.801 19.3005C144.76 17.5135 144.414 16.1486 143.761 15.2057C143.675 15.0795 143.58 14.9594 143.478 14.8461C142.763 14.0663 141.681 13.6764 140.233 13.6764C140.129 13.6764 140.029 13.6764 139.929 13.6764C138.433 13.7357 137.359 14.2436 136.706 15.2001C136.616 15.3327 136.532 15.4701 136.456 15.6117V15.6191ZM164.202 15.2483C164.021 13.4876 163.195 11.8567 161.883 10.6709C160.57 9.4852 158.865 8.82893 157.098 8.82906V31.3438H164.239V15.9824C164.239 15.7359 164.226 15.4912 164.202 15.2502V15.2483ZM193.929 31.3419H185.895L180.995 24.2164L176.096 31.3419H168.062L176.408 19.5618L168.845 8.83091H176.881L180.995 14.9295L185.109 8.83091H193.142L185.588 19.5618L193.929 31.3419Z" fill="#F2F1EB"/>
<path d="M209.665 24.8001H212.309V31.3399H213.767V24.8001H216.411V23.5767H209.665V24.8001Z" fill="#FF7E49"/>
<path d="M218.843 27.994H222.697V26.7705H218.843V24.8001H222.88V23.5767H217.384V31.3399H222.936V30.1164H218.843V27.994Z" fill="#FF7E49"/>
<path d="M226.038 25.4454C226.26 25.1811 226.543 24.976 226.864 24.8485C227.235 24.7023 227.632 24.6311 228.032 24.639C228.809 24.6265 229.572 24.8487 230.221 25.2767L230.919 24.3128C230.227 23.7147 229.264 23.4156 228.032 23.4156C227.431 23.4065 226.833 23.509 226.269 23.7177C225.78 23.899 225.337 24.1879 224.974 24.563C224.625 24.9292 224.356 25.3642 224.185 25.8402C224 26.3594 223.909 26.9073 223.915 27.4585C223.909 28.0114 224.001 28.561 224.185 29.0823C224.359 29.5572 224.627 29.9918 224.974 30.3595C225.338 30.7317 225.781 31.0185 226.269 31.1992C226.833 31.408 227.431 31.5104 228.032 31.5013C229.266 31.5013 230.228 31.2016 230.919 30.6023L230.221 29.6402C229.572 30.0672 228.809 30.2894 228.032 30.2779C227.632 30.2853 227.235 30.2135 226.864 30.0666C226.545 29.9397 226.262 29.7374 226.038 29.4771C225.821 29.2136 225.657 28.9101 225.557 28.5836C225.339 27.8493 225.339 27.0676 225.557 26.3333C225.657 26.0082 225.82 25.7063 226.038 25.4454Z" fill="#FF7E49"/>
<path d="M237.043 26.7705H233.352V23.5767H231.891V31.3399H233.352V27.994H237.043V31.3399H238.501V23.5767H237.043V26.7705Z" fill="#FF7E49"/>
<path d="M245.14 29.3101L241.665 23.5767H239.805V31.3399H241.265V25.6064L244.74 31.3399H246.6V23.5767H245.14V29.3101Z" fill="#FF7E49"/>
<path d="M254.865 24.5631C254.502 24.1879 254.059 23.8991 253.569 23.7178C252.431 23.3167 251.19 23.3167 250.052 23.7178C249.563 23.8991 249.12 24.1879 248.756 24.5631C248.408 24.9319 248.14 25.3686 247.968 25.8458C247.782 26.3629 247.691 26.9091 247.698 27.4585C247.691 28.0115 247.783 28.5613 247.968 29.0823C248.141 29.5573 248.41 29.9918 248.756 30.3595C249.121 30.7317 249.564 31.0185 250.052 31.1992C251.19 31.6003 252.431 31.6003 253.569 31.1992C254.058 31.0185 254.5 30.7317 254.865 30.3595C255.211 29.9925 255.478 29.5576 255.648 29.0823C255.836 28.5619 255.929 28.0119 255.924 27.4585C255.93 26.9087 255.836 26.3624 255.648 25.8458C255.479 25.3682 255.213 24.9312 254.865 24.5631ZM254.28 28.5837C254.179 28.9101 254.016 29.2137 253.799 29.4772C253.575 29.7375 253.292 29.9397 252.973 30.0666C252.22 30.3489 251.39 30.3489 250.637 30.0666C250.318 29.9397 250.034 29.7375 249.81 29.4772C249.593 29.2132 249.43 28.9098 249.328 28.5837C249.114 27.849 249.114 27.068 249.328 26.3333C249.429 26.0086 249.593 25.707 249.81 25.4454C250.032 25.1811 250.316 24.9761 250.637 24.8485C251.391 24.5692 252.219 24.5692 252.973 24.8485C253.293 24.9761 253.577 25.1812 253.799 25.4454C254.017 25.7063 254.18 26.0082 254.28 26.3333C254.497 27.0677 254.497 27.8493 254.28 28.5837Z" fill="#FF7E49"/>
<path d="M258.464 23.5767H257.005V31.3399H262.264V30.1164H258.464V23.5767Z" fill="#FF7E49"/>
<path d="M270.14 24.5631C269.777 24.1879 269.334 23.8991 268.845 23.7178C267.706 23.3167 266.466 23.3167 265.327 23.7178C264.838 23.8991 264.395 24.1879 264.032 24.5631C263.684 24.9319 263.415 25.3686 263.243 25.8458C263.059 26.3632 262.967 26.9092 262.973 27.4585C262.967 28.0114 263.059 28.5611 263.243 29.0823C263.417 29.5573 263.685 29.9918 264.032 30.3595C264.396 30.7317 264.839 31.0185 265.327 31.1992C266.466 31.6003 267.706 31.6003 268.845 31.1992C269.333 31.0185 269.776 30.7317 270.14 30.3595C270.487 29.9925 270.753 29.5576 270.923 29.0823C271.111 28.5619 271.205 28.0119 271.199 27.4585C271.205 26.9087 271.111 26.3624 270.923 25.8458C270.755 25.3682 270.488 24.9312 270.14 24.5631ZM269.555 28.5837C269.455 28.9097 269.292 29.2131 269.076 29.4772C268.852 29.7375 268.568 29.9397 268.249 30.0666C267.495 30.3489 266.666 30.3489 265.912 30.0666C265.593 29.9397 265.309 29.7375 265.085 29.4772C264.869 29.2131 264.706 28.9097 264.606 28.5837C264.388 27.8493 264.388 27.0677 264.606 26.3333C264.705 26.0087 264.868 25.7069 265.085 25.4454C265.307 25.1811 265.592 24.9761 265.912 24.8485C266.666 24.5692 267.495 24.5692 268.249 24.8485C268.569 24.9761 268.854 25.1811 269.076 25.4454C269.293 25.7069 269.455 26.0087 269.555 26.3333C269.773 27.0677 269.773 27.8493 269.555 28.5837Z" fill="#FF7E49"/>
<path d="M276.291 28.1128H277.972V29.8942C277.737 30.0343 277.479 30.1298 277.209 30.1759C276.871 30.2456 276.527 30.2798 276.182 30.2779C275.783 30.2853 275.387 30.2135 275.016 30.0666C274.697 29.9397 274.413 29.7375 274.188 29.4771C273.972 29.2132 273.809 28.9098 273.707 28.5836C273.49 27.8493 273.49 27.0676 273.707 26.3333C273.808 26.0086 273.972 25.7069 274.188 25.4454C274.411 25.1811 274.695 24.976 275.016 24.8485C275.387 24.7022 275.783 24.631 276.182 24.639C277.046 24.6204 277.895 24.8655 278.616 25.3416L279.323 24.3999C278.527 23.7437 277.478 23.4156 276.177 23.4156C275.576 23.4065 274.978 23.509 274.414 23.7177C273.925 23.8988 273.482 24.1877 273.119 24.563C272.77 24.9319 272.501 25.3685 272.328 25.8458C272.144 26.3631 272.052 26.9091 272.058 27.4585C272.052 28.0114 272.144 28.561 272.328 29.0823C272.502 29.5573 272.771 29.9918 273.119 30.3595C273.483 30.732 273.926 31.0188 274.414 31.1992C274.978 31.408 275.576 31.5104 276.177 31.5013C276.771 31.5032 277.363 31.4342 277.941 31.2956C278.459 31.1806 278.94 30.9371 279.34 30.5875V26.8894H276.286L276.291 28.1128Z" fill="#FF7E49"/>
<path d="M281.998 23.5767H280.54V31.338H281.998V23.5767Z" fill="#FF7E49"/>
<path d="M284.756 27.994H288.61V26.7705H284.756V24.8001H288.794V23.5767H283.296V31.3399H288.847V30.1164H284.756V27.994Z" fill="#FF7E49"/>
<path d="M295.28 27.6198C294.8 27.2194 294.059 26.9104 293.058 26.6929C292.616 26.6204 292.189 26.4704 291.798 26.2499C291.676 26.1743 291.575 26.0679 291.507 25.9414C291.439 25.8149 291.405 25.6726 291.409 25.5288C291.409 24.927 291.883 24.6261 292.831 24.6261C293.554 24.6068 294.268 24.7863 294.897 25.1451L295.609 24.1219C295.239 23.8676 294.827 23.6794 294.393 23.5658C293.881 23.4456 293.356 23.3896 292.831 23.399C292.393 23.3928 291.957 23.449 291.535 23.5658C291.202 23.653 290.892 23.8118 290.626 24.0311C290.408 24.2173 290.233 24.448 290.112 24.7077C289.999 24.9653 289.942 25.2439 289.945 25.5251C289.941 25.8116 290 26.0954 290.117 26.3565C290.235 26.6176 290.409 26.8495 290.626 27.0359C291.079 27.4437 291.803 27.7526 292.799 27.9627C293.27 28.0337 293.72 28.2016 294.123 28.4558C294.246 28.5363 294.348 28.6461 294.419 28.7755C294.489 28.9049 294.527 29.0498 294.528 29.1973C294.541 29.3538 294.513 29.5109 294.449 29.6539C294.384 29.7969 294.284 29.921 294.158 30.0147C293.911 30.1766 293.531 30.2576 293.018 30.2576C292.104 30.2726 291.205 30.027 290.426 29.5495L289.712 30.5727C290.138 30.8916 290.62 31.128 291.133 31.2697C291.749 31.4219 292.382 31.4929 293.016 31.481C293.416 31.4856 293.815 31.4421 294.204 31.3512C294.538 31.274 294.856 31.1405 295.145 30.9564C295.413 30.7781 295.629 30.5319 295.772 30.2427C295.926 29.9161 296.002 29.5583 295.994 29.1973C296.003 28.8971 295.944 28.5989 295.82 28.3254C295.696 28.052 295.511 27.8106 295.28 27.6198Z" fill="#FF7E49"/>
<path d="M211.109 13.5668H214.963V12.3434H211.109V10.3748H215.148V9.15137H209.65V16.9127H211.109V13.5668Z" fill="#FF7E49"/>
<path d="M221.893 15.6893H217.801V13.5668H221.655V12.3434H217.801V10.3748H221.84V9.15137H216.342V16.9127H221.893V15.6893Z" fill="#FF7E49"/>
<path d="M224.548 11.1811L228.022 16.9127H229.883V9.15137H228.422V14.8829L224.948 9.15137H223.087V16.9127H224.548V11.1811Z" fill="#FF7E49"/>
<path d="M233.965 9.15137L230.699 16.9127H232.217L232.958 15.1054H236.169L236.91 16.9127H238.42L235.155 9.15137H233.965ZM233.45 13.8764L234.561 11.1589L235.671 13.8764H233.45Z" fill="#FF7E49"/>
<path d="M240.699 11.1811L244.175 16.9127H246.034V9.15137H244.575V14.8829L241.099 9.15137H239.238V16.9127H240.699V11.1811Z" fill="#FF7E49"/>
<path d="M248.179 15.9415C248.544 16.3137 248.986 16.6005 249.475 16.7812C250.038 16.9906 250.636 17.0937 251.237 17.0852C252.471 17.0852 253.433 16.7855 254.123 16.1862L253.427 15.2223C252.777 15.6508 252.014 15.8736 251.237 15.8618C250.837 15.8692 250.441 15.7974 250.069 15.6505C249.75 15.5236 249.466 15.3206 249.243 15.0591C249.026 14.7963 248.863 14.4934 248.762 14.1675C248.545 13.4325 248.545 12.6503 248.762 11.9153C248.862 11.5902 249.025 11.2883 249.243 11.0274C249.466 10.7643 249.749 10.5599 250.069 10.4324C250.441 10.2855 250.837 10.2136 251.237 10.2211C252.014 10.2096 252.777 10.4317 253.427 10.8587L254.123 9.89666C253.432 9.2973 252.47 8.99763 251.237 8.99763C250.636 8.98854 250.038 9.09098 249.475 9.29977C248.985 9.48105 248.542 9.76988 248.179 10.1451C247.831 10.5115 247.562 10.9464 247.39 11.4222C247.03 12.4728 247.03 13.6137 247.39 14.6643C247.563 15.1394 247.832 15.5741 248.179 15.9415Z" fill="#FF7E49"/>
<path d="M256.557 9.15137H255.098V16.9127H256.557V9.15137Z" fill="#FF7E49"/>
<path d="M259.622 15.1054H262.834L263.574 16.9127H265.092L261.829 9.15137H260.633L257.37 16.9127H258.888L259.622 15.1054ZM261.229 11.1589L262.34 13.8764H260.118L261.229 11.1589Z" fill="#FF7E49"/>
<path d="M267.369 9.15137H265.909V16.9127H271.169V15.6893H267.369V9.15137Z" fill="#FF7E49"/>
</g>
<defs>
<linearGradient id="paint0_linear_50_61715" x1="42.9601" y1="24.3423" x2="8.85123" y2="6.19362" gradientUnits="userSpaceOnUse">
<stop stop-color="#FC883A"/>
<stop offset="0.96" stop-color="#F2542A"/>
</linearGradient>
<linearGradient id="paint1_linear_50_61715" x1="46.2031" y1="24.5832" x2="5.63738" y2="2.99783" gradientUnits="userSpaceOnUse">
<stop stop-color="#FC883A"/>
<stop offset="1" stop-color="#F2542A"/>
</linearGradient>
<clipPath id="clip0_50_61715">
<rect width="296" height="32" fill="white"/>
</clipPath>
</defs>
</svg>
