<svg width="305" height="32" viewBox="0 0 305 32" fill="none" xmlns="http://www.w3.org/2000/svg">
<path d="M16.5598 19.9773C16.5595 20.4508 16.6524 20.9196 16.8334 21.3571C17.0144 21.7946 17.2798 22.1921 17.6145 22.5269C17.9492 22.8617 18.3466 23.1273 18.784 23.3084C19.2214 23.4896 19.6902 23.5827 20.1636 23.5825H39.6903C40.6369 23.5827 41.5742 23.3964 42.4488 23.0342C43.3233 22.6721 44.118 22.1412 44.7873 21.4718C45.4566 20.8025 45.9875 20.0079 46.3497 19.1333C46.7118 18.2588 46.8981 17.3214 46.898 16.3749H20.1636C19.6904 16.3747 19.2218 16.4677 18.7846 16.6487C18.3474 16.8297 17.9501 17.095 17.6154 17.4295C17.2808 17.7641 17.0153 18.1613 16.8342 18.5984C16.653 19.0356 16.5598 19.5042 16.5598 19.9773Z" fill="url(#paint0_linear_168_3227)"/>
<path d="M17.3217 8.68278C16.766 8.68314 16.2328 8.46281 15.8395 8.07024C15.4462 7.67766 15.2248 7.14496 15.2241 6.58923V2.31553C15.2237 2.24351 15.1993 2.17368 15.1548 2.1171C15.1102 2.06052 15.048 2.02043 14.9781 2.00319C14.9082 1.98594 14.8345 1.99252 14.7688 2.02189C14.703 2.05126 14.6489 2.10173 14.6151 2.16531C13.6949 3.96249 11.8395 6.08987 8.99353 7.69893C7.91404 8.28177 6.7699 8.73598 5.58458 9.05223C1.09841 10.3406 -0.119556 14.6846 0.00900708 16.4845C5.52503 14.7252 8.2032 18.1355 8.96376 22.0249C9.44247 24.6221 10.8161 26.9695 12.8459 28.6591C14.8757 30.3487 17.4333 31.2737 20.0743 31.2733H24.1518C24.9973 31.2739 25.8346 31.1078 26.616 30.7847C27.3973 30.4616 28.1073 29.9877 28.7055 29.3902C29.3037 28.7926 29.7783 28.0831 30.1023 27.3021C30.4262 26.5211 30.5931 25.6839 30.5935 24.8384H20.257C19.6198 24.8505 18.9864 24.737 18.3931 24.5043C17.7998 24.2716 17.2581 23.9243 16.799 23.4823C16.3399 23.0403 15.9723 22.5121 15.7173 21.9281C15.4623 21.344 15.3248 20.7154 15.3127 20.0782C15.3007 19.441 15.4142 18.8076 15.6469 18.2143C15.8796 17.621 16.2268 17.0793 16.6689 16.6202C17.1109 16.1611 17.639 15.7935 18.2231 15.5385C18.8072 15.2835 19.4357 15.146 20.0729 15.1339C20.1338 15.1339 20.1961 15.1339 20.257 15.1339H45.2077C46.9164 15.1332 48.5548 14.4539 49.7628 13.2455C50.9708 12.037 51.6494 10.3982 51.6494 8.68955L17.3217 8.68278Z" fill="url(#paint1_linear_168_3227)"/>
<path d="M150.862 16.1286C150.691 14.4611 149.907 12.9165 148.663 11.7934C147.418 10.6703 145.802 10.0485 144.125 10.0482V31.3748H150.892V16.8242C150.892 16.5928 150.88 16.3615 150.857 16.1313L150.862 16.1286Z" fill="#F2F1EB"/>
<path d="M129.464 9.42847C126.931 9.42847 125.036 10.388 123.78 12.3069V10.051H117.01V31.387H123.784V20.3252C123.784 18.7012 124.038 17.4197 124.545 16.4805C124.616 16.3461 124.695 16.216 124.781 16.0907C125.401 15.1885 126.42 14.7072 127.839 14.6468H128.127C129.5 14.6468 130.526 15.0162 131.204 15.7551C131.302 15.8624 131.393 15.9763 131.475 16.0961C132.094 16.9893 132.423 18.2822 132.461 19.9747V31.387H139.228V20.3184C139.228 16.7863 138.45 14.0883 136.893 12.2244C135.337 10.3604 132.861 9.42847 129.464 9.42847Z" fill="#F2F1EB"/>
<path d="M82.7643 7.66908C83.5501 7.66908 84.3282 7.51428 85.0542 7.21353C85.7801 6.91278 86.4398 6.47196 86.9953 5.91625C87.5509 5.36054 87.9916 4.70083 88.2922 3.97479C88.5928 3.24876 88.7474 2.47062 88.7472 1.68481H66.7305V31.3747H73.6093V19.6349H81.8738C82.6595 19.6353 83.4375 19.4809 84.1634 19.1805C84.8893 18.8801 85.549 18.4397 86.1047 17.8844C86.6604 17.3291 87.1013 16.6697 87.4021 15.944C87.703 15.2182 87.8579 14.4403 87.8581 13.6547H73.6093V7.66908H82.7643Z" fill="#F2F1EB"/>
<path d="M102.215 9.42838C100.719 9.41202 99.2288 9.62189 97.7953 10.0509C96.5894 10.3908 95.4604 10.9601 94.4702 11.7276C92.6909 13.1404 91.4221 15.0959 90.8569 17.2964C90.5786 18.4134 90.4422 19.561 90.4509 20.7121C90.4386 22.1539 90.6622 23.5879 91.1127 24.9574C91.5513 26.2658 92.2306 27.4807 93.1156 28.5396C94.025 29.6024 95.2574 30.4441 96.8128 31.0648C98.3681 31.6856 100.169 31.9964 102.215 31.9973C106.378 31.9973 109.761 30.9485 112.365 28.8509L111.325 27.6721C110.156 26.3405 108.29 25.6936 106.624 26.2904C105.208 26.7759 103.72 27.0135 102.223 26.9928C101.454 27.0087 100.687 26.9037 99.951 26.6815C99.3961 26.511 98.8924 26.205 98.4854 25.7911C98.1564 25.4433 97.8969 25.0359 97.7208 24.5907C97.5682 24.1513 97.4918 23.689 97.4948 23.2239H113.583C113.996 18.8933 113.211 15.5101 111.228 13.0742C109.245 10.6382 106.241 9.42296 102.215 9.42838ZM97.5124 18.8284C97.5109 18.3295 97.5881 17.8335 97.7411 17.3587C97.9036 16.8543 98.1472 16.3799 98.4624 15.954C98.8494 15.4668 99.3557 15.0878 99.9321 14.8537C100.658 14.5662 101.435 14.4281 102.215 14.4477C102.996 14.4248 103.773 14.563 104.498 14.8537C105.077 15.0799 105.583 15.4593 105.962 15.9513C106.596 16.7759 106.937 17.7884 106.93 18.8284H97.5124Z" fill="#F2F1EB"/>
<path d="M184.562 21.1114C184.562 22.9736 184.23 24.3846 183.567 25.3445C182.904 26.3045 181.787 26.784 180.215 26.7831C178.641 26.7831 177.523 26.3036 176.862 25.3445C176.2 24.3855 175.869 22.9745 175.867 21.1114V10.0604H169.077V21.1114C169.077 24.6435 169.857 27.3411 171.417 29.2041C172.977 31.0672 175.461 31.9991 178.868 32C181.408 32 183.306 31.0405 184.562 29.1216V31.3789H191.355V10.0604H184.562V21.1114Z" fill="#F2F1EB"/>
<path d="M211.3 20.2237L218.484 10.0604H210.846L206.933 15.8349L203.021 10.0604H195.382L202.565 20.2237L194.637 31.3816H202.275L206.933 24.6327L211.59 31.3816H219.228L211.3 20.2237Z" fill="#F2F1EB"/>
<path d="M163.26 6.78948C163.26 4.9888 162.544 3.26187 161.271 1.98859C159.998 0.715318 158.271 0 156.47 0V31.3748H163.268V24.5853H163.26V6.78948Z" fill="#F2F1EB"/>
<path d="M239.466 10.9509L238.806 11.8982C238.225 11.5666 237.564 11.4009 236.895 11.4192C236.02 11.4192 235.58 11.6979 235.58 12.2541C235.576 12.3869 235.608 12.5182 235.671 12.635C235.734 12.7518 235.827 12.8501 235.94 12.92C236.181 13.0797 236.568 13.215 237.106 13.3259C238.029 13.5235 238.713 13.8064 239.158 14.1745C239.374 14.3526 239.547 14.5782 239.662 14.8338C239.777 15.0893 239.832 15.368 239.822 15.6482C239.83 15.9809 239.76 16.3108 239.618 16.6117C239.486 16.8794 239.286 17.1073 239.037 17.2722C238.771 17.4441 238.477 17.5682 238.169 17.6389C237.807 17.7241 237.436 17.7645 237.064 17.7593C236.478 17.7703 235.894 17.7038 235.325 17.5618C234.85 17.4325 234.403 17.2149 234.009 16.9203L234.67 15.973C235.39 16.4144 236.22 16.6421 237.064 16.6293C237.546 16.6293 237.899 16.5527 238.124 16.3993C238.349 16.2477 238.462 15.9933 238.462 15.6468C238.462 15.5093 238.427 15.3741 238.361 15.2534C238.295 15.1327 238.2 15.0303 238.085 14.9553C237.836 14.7686 237.43 14.6174 236.867 14.502C235.946 14.308 235.275 14.0229 234.854 13.6467C234.653 13.4743 234.493 13.2598 234.384 13.0185C234.275 12.7772 234.22 12.5148 234.224 12.2501C234.221 11.9888 234.276 11.7302 234.383 11.4922C234.493 11.2524 234.654 11.0395 234.854 10.8684C235.101 10.6666 235.388 10.5199 235.696 10.438C236.088 10.3302 236.494 10.2782 236.901 10.2837C237.387 10.2758 237.873 10.3277 238.347 10.438C238.747 10.5445 239.125 10.7179 239.466 10.9509Z" fill="#FF7E49"/>
<path d="M246.279 17.4819C245.223 17.8536 244.072 17.8536 243.016 17.4819C242.564 17.3143 242.154 17.0485 241.817 16.7037C241.495 16.3647 241.247 15.9623 241.089 15.5223C240.75 14.5542 240.75 13.4996 241.089 12.5315C241.247 12.0908 241.495 11.6876 241.817 11.3474C242.153 11.0009 242.563 10.7345 243.016 10.5679C244.071 10.1929 245.224 10.1929 246.279 10.5679C246.732 10.7341 247.143 11.0006 247.479 11.3474C247.8 11.688 248.048 12.0911 248.207 12.5315C248.545 13.4999 248.545 14.5539 248.207 15.5223C248.049 15.9621 247.801 16.3643 247.479 16.7037C247.142 17.0488 246.732 17.3146 246.279 17.4819ZM243.572 16.4358C244.27 16.6984 245.04 16.6984 245.737 16.4358C246.033 16.3194 246.296 16.1338 246.505 15.8945C246.705 15.6516 246.855 15.3721 246.949 15.0717C247.149 14.3919 247.149 13.6687 246.949 12.9889C246.855 12.6885 246.705 12.409 246.505 12.1661C246.296 11.9272 246.033 11.7416 245.737 11.6248C245.039 11.364 244.27 11.364 243.572 11.6248C243.278 11.7409 243.016 11.9267 242.809 12.1661C242.607 12.4085 242.455 12.688 242.361 12.9889C242.163 13.669 242.163 14.3916 242.361 15.0717C242.455 15.3726 242.607 15.6521 242.809 15.8945C243.014 16.1335 243.274 16.3193 243.567 16.4358H243.572Z" fill="#FF7E49"/>
<path d="M250.984 10.4366V16.4791H254.503V17.6105H249.631V10.438L250.984 10.4366Z" fill="#FF7E49"/>
<path d="M257.162 16.0731C257.433 16.4453 257.894 16.632 258.538 16.632C259.182 16.632 259.643 16.4453 259.917 16.0731C260.192 15.701 260.323 15.1623 260.323 14.4492V10.4366H261.677V14.4546C261.677 15.512 261.419 16.3275 260.904 16.9013C260.389 17.4751 259.599 17.7616 258.534 17.7607C257.473 17.7607 256.686 17.4742 256.171 16.9013C255.657 16.3284 255.399 15.5129 255.397 14.4546V10.4366H256.751V14.4546C256.752 15.1569 256.89 15.6983 257.162 16.0731Z" fill="#FF7E49"/>
<path d="M264.816 19.9083L265.048 19.3237C265.161 19.3616 265.277 19.3923 265.394 19.4157C265.531 19.4447 265.67 19.4628 265.809 19.4699C265.944 19.4822 266.079 19.4539 266.198 19.3887C266.303 19.3278 267.057 19.2276 267.071 19.0923C267.08 19.0489 267.078 19.004 267.065 18.9616C267.053 18.9191 267.03 18.8803 266.999 18.8487C266.917 18.7836 266.815 18.7478 266.711 18.7472C266.579 18.7357 266.446 18.7357 266.314 18.7472C266.179 18.758 266.019 18.7783 265.828 18.8081L266.18 17.7255C265.169 17.6064 264.386 17.2153 263.828 16.544C263.271 15.8728 262.992 15.0338 262.992 14.0269C262.987 13.516 263.073 13.0082 263.246 12.5275C263.404 12.0885 263.652 11.6872 263.973 11.3487C264.31 11.0025 264.72 10.7365 265.173 10.5706C265.695 10.3746 266.248 10.2778 266.805 10.285C267.947 10.285 268.837 10.5616 269.477 11.1146L268.831 12.0064C268.23 11.6093 267.522 11.4036 266.801 11.4164C266.431 11.4085 266.063 11.4748 265.719 11.6113C265.424 11.7273 265.162 11.9131 264.954 12.1526C264.754 12.3954 264.602 12.6748 264.508 12.9754C264.309 13.6555 264.309 14.3781 264.508 15.0581C264.602 15.3587 264.754 15.6381 264.954 15.8809C265.161 16.1208 265.424 16.3066 265.719 16.4222C266.063 16.5585 266.431 16.6252 266.801 16.6185C267.522 16.6303 268.23 16.4237 268.831 16.0257L269.477 16.9175C268.86 17.4507 268.009 17.7273 266.926 17.7471L266.791 18.1531C267.07 18.1412 267.346 18.2237 267.573 18.3872C267.778 18.5415 267.865 18.781 267.835 19.1085C267.812 19.3684 267.023 19.5795 266.87 19.7392C266.713 19.899 266.51 20.0058 266.289 20.045C266.048 20.0886 265.803 20.0968 265.56 20.0694C265.306 20.049 265.056 19.9948 264.816 19.9083Z" fill="#FF7E49"/>
<path d="M275.772 17.4819C274.717 17.8536 273.565 17.8536 272.51 17.4819C272.057 17.3139 271.647 17.0482 271.309 16.7037C270.988 16.3643 270.74 15.9621 270.581 15.5223C270.244 14.5539 270.244 13.4999 270.581 12.5315C270.74 12.091 270.988 11.688 271.309 11.3474C271.646 11.0011 272.056 10.7348 272.51 10.5679C273.565 10.1929 274.717 10.1929 275.772 10.5679C276.226 10.7341 276.636 11.0005 276.973 11.3474C277.292 11.6884 277.538 12.0915 277.695 12.5315C278.035 13.4996 278.035 14.5542 277.695 15.5223C277.537 15.9621 277.29 16.3643 276.969 16.7037C276.632 17.0483 276.224 17.3141 275.772 17.4819ZM273.066 16.4358C273.764 16.6984 274.533 16.6984 275.231 16.4358C275.526 16.3197 275.789 16.134 275.997 15.8944C276.198 15.6519 276.349 15.3724 276.442 15.0716C276.641 14.3916 276.641 13.669 276.442 12.9889C276.349 12.6882 276.198 12.4086 275.997 12.1661C275.789 11.9269 275.526 11.7412 275.231 11.6248C274.533 11.364 273.764 11.364 273.066 11.6248C272.771 11.7409 272.509 11.9266 272.301 12.1661C272.101 12.4089 271.949 12.6884 271.855 12.9889C271.656 13.669 271.656 14.3916 271.855 15.0716C271.949 15.3722 272.101 15.6516 272.301 15.8944C272.507 16.1336 272.767 16.3193 273.06 16.4358H273.066ZM273.99 9.60839C273.973 9.59206 273.954 9.57755 273.933 9.56509L273.859 9.51637L273.789 9.47306C273.763 9.45827 273.736 9.4469 273.707 9.43923C273.68 9.43282 273.653 9.42964 273.625 9.42976C273.568 9.42982 273.513 9.44911 273.468 9.48449C273.424 9.51987 273.393 9.56927 273.38 9.62463C273.359 9.68751 273.349 9.75335 273.35 9.8195H272.426C272.43 9.60559 272.476 9.39455 272.561 9.19834C272.742 8.78153 272.397 8.57312 272.914 8.57312C273.166 8.57312 274.117 8.67868 274.383 8.89385C274.383 8.89385 274.41 8.9155 274.441 8.9358C274.472 8.9561 274.498 8.9737 274.517 8.98452C274.538 9.00165 274.562 9.01618 274.587 9.02783C274.612 9.04389 274.639 9.05619 274.668 9.06437C274.694 9.07076 274.721 9.07395 274.748 9.07384C274.805 9.0736 274.86 9.05427 274.905 9.01894C274.949 8.98361 274.981 8.93432 274.994 8.87896C275.015 8.81616 275.025 8.75027 275.024 8.68409H275.95C275.947 8.89941 275.901 9.11194 275.814 9.30931C275.613 9.7153 275.273 9.92912 274.767 9.92912C274.479 9.91426 274.205 9.80105 273.99 9.60839Z" fill="#FF7E49"/>
<path d="M280.31 13.3882H283.877V14.5195H280.31V16.4791H284.099V17.6104H278.957V10.438H284.044V11.5693H280.306L280.31 13.3882Z" fill="#FF7E49"/>
<path d="M290.446 10.9509L289.787 11.8982C289.206 11.5667 288.544 11.401 287.875 11.4192C287 11.4192 286.56 11.6979 286.56 12.2541C286.556 12.387 286.588 12.5185 286.651 12.6353C286.715 12.7522 286.808 12.8503 286.921 12.92C287.161 13.0797 287.549 13.215 288.086 13.3259C289.009 13.5235 289.693 13.8064 290.138 14.1745C290.354 14.3526 290.527 14.5782 290.642 14.8338C290.757 15.0893 290.812 15.368 290.802 15.6482C290.81 15.9807 290.74 16.3104 290.599 16.6117C290.467 16.8789 290.267 17.1066 290.019 17.2722C289.753 17.4441 289.459 17.5682 289.15 17.6389C288.788 17.724 288.417 17.7645 288.046 17.7593C287.46 17.7704 286.875 17.704 286.307 17.5618C285.831 17.4328 285.384 17.2152 284.989 16.9203L285.65 15.973C286.37 16.4143 287.201 16.6419 288.046 16.6293C288.526 16.6293 288.879 16.5527 289.104 16.3993C289.329 16.2477 289.442 15.9933 289.442 15.6468C289.442 15.5094 289.407 15.3742 289.342 15.2535C289.276 15.1328 289.181 15.0303 289.066 14.9553C288.817 14.7686 288.409 14.6174 287.841 14.502C286.921 14.308 286.251 14.0229 285.83 13.6467C285.629 13.4743 285.469 13.2598 285.36 13.0185C285.251 12.7772 285.196 12.5148 285.2 12.2501C285.196 11.9889 285.251 11.7303 285.358 11.4922C285.468 11.2524 285.629 11.0395 285.83 10.8684C286.077 10.6669 286.363 10.5202 286.671 10.438C287.063 10.3302 287.468 10.2782 287.875 10.2837C288.362 10.2758 288.848 10.3277 289.322 10.438C289.723 10.5439 290.103 10.7173 290.446 10.9509Z" fill="#FF7E49"/>
<path d="M235.658 27.0902H239.226V28.2215H235.658V31.3125H234.305V24.14H239.397V25.2714H235.66L235.658 27.0902Z" fill="#FF7E49"/>
<path d="M241.127 31.3125V24.14H242.48V31.3125H241.127Z" fill="#FF7E49"/>
<path d="M244.2 31.3125V24.14H245.922L249.141 29.4368V24.1373H250.494V31.3098H248.773L245.555 26.0116V31.3098L244.2 31.3125Z" fill="#FF7E49"/>
<path d="M253.221 29.6371L252.545 31.3084H251.138L254.162 24.136H255.266L258.289 31.3084H256.883L256.194 29.6371H253.221ZM254.71 25.99L253.684 28.5004H255.737L254.71 25.99Z" fill="#FF7E49"/>
<path d="M259.614 31.3125V24.14H261.336L264.551 29.4395V24.1373H265.904V31.3098H264.184L260.966 26.0116V31.3098L259.614 31.3125Z" fill="#FF7E49"/>
<path d="M268.56 26.6842C268.359 27.3635 268.359 28.0863 268.56 28.7656C268.653 29.0667 268.804 29.3463 269.006 29.5884C269.212 29.8315 269.474 30.0202 269.769 30.1378C270.114 30.2727 270.482 30.3389 270.852 30.3327C271.573 30.3445 272.28 30.1383 272.882 29.7413L273.529 30.6318C272.886 31.1853 271.998 31.4613 270.857 31.4613C270.3 31.4701 269.747 31.3756 269.224 31.1826C268.772 31.0149 268.363 30.7497 268.025 30.4058C267.704 30.0663 267.456 29.6641 267.297 29.2244C266.958 28.2535 266.958 27.1963 267.297 26.2255C267.455 25.7864 267.703 25.385 268.025 25.0467C268.362 24.7011 268.771 24.4352 269.224 24.2686C269.746 24.074 270.3 23.9785 270.857 23.9871C271.998 23.9871 272.887 24.2645 273.529 24.818L272.882 25.7085C272.28 25.3123 271.573 25.1071 270.852 25.1198C270.482 25.1114 270.114 25.1777 269.769 25.3147C269.474 25.4298 269.212 25.6157 269.006 25.856C268.804 26.0997 268.652 26.3812 268.56 26.6842Z" fill="#FF7E49"/>
<path d="M275.952 27.0902H279.52V28.2216H275.952V30.1784H279.742V31.3098H274.599V24.1373H279.686V25.2687H275.948L275.952 27.0902Z" fill="#FF7E49"/>
<path d="M281.283 31.3125V24.14H282.636V31.3125H281.283Z" fill="#FF7E49"/>
<path d="M285.595 31.3125H284.241V24.14H287.278C288.18 24.14 288.855 24.3389 289.301 24.7368C289.748 25.1347 289.971 25.6895 289.97 26.4014C289.972 26.68 289.927 26.957 289.835 27.2201C289.757 27.4454 289.633 27.6523 289.472 27.8277C289.321 27.9887 289.146 28.1256 288.954 28.2337C288.751 28.3425 288.536 28.427 288.313 28.4854L289.974 31.3179H288.458L286.907 28.6668H285.585L285.595 31.3125ZM287.282 25.2687H285.595V27.53H287.282C287.751 27.53 288.091 27.4398 288.3 27.2594C288.508 27.0807 288.613 26.7952 288.613 26.396C288.613 25.9967 288.507 25.7193 288.299 25.5366C288.09 25.3539 287.749 25.2687 287.282 25.2687Z" fill="#FF7E49"/>
<path d="M292.793 29.6371L292.116 31.3084H290.628L293.729 24.136H294.834L297.856 31.3084H296.451L295.766 29.6371H292.793ZM294.282 25.99L293.258 28.5044H295.31L294.282 25.99Z" fill="#FF7E49"/>
<path d="M303.775 24.6516L303.116 25.5989C302.534 25.2686 301.872 25.1034 301.203 25.1212C300.328 25.1212 299.888 25.4 299.888 25.9548C299.885 26.0878 299.916 26.2193 299.979 26.3364C300.042 26.4534 300.135 26.5519 300.248 26.622C300.489 26.7803 300.877 26.917 301.415 27.028C302.338 27.2256 303.021 27.5084 303.466 27.8765C303.683 28.0546 303.855 28.2802 303.97 28.5358C304.086 28.7914 304.141 29.0701 304.131 29.3502C304.139 29.6834 304.069 30.0138 303.926 30.3151C303.795 30.5824 303.594 30.8099 303.346 30.9742C303.08 31.146 302.786 31.2705 302.478 31.3423C302.116 31.4262 301.746 31.4662 301.374 31.4614C300.788 31.4728 300.203 31.4068 299.634 31.2652C299.159 31.1349 298.712 30.9168 298.317 30.6223L298.979 29.675C299.699 30.1154 300.53 30.3425 301.374 30.33C301.854 30.33 302.208 30.2529 302.432 30.1013C302.657 29.9497 302.771 29.6953 302.771 29.3475C302.77 29.2101 302.736 29.0749 302.67 28.9542C302.604 28.8335 302.51 28.731 302.394 28.656C302.144 28.4701 301.735 28.319 301.17 28.2026C300.248 28.0105 299.577 27.7254 299.157 27.3474C298.956 27.1749 298.796 26.9605 298.687 26.7191C298.578 26.4778 298.524 26.2155 298.528 25.9508C298.525 25.69 298.579 25.4318 298.686 25.1943C298.796 24.9546 298.957 24.7417 299.157 24.5704C299.404 24.3677 299.691 24.2204 299.999 24.1387C300.391 24.0309 300.797 23.9789 301.203 23.9844C301.69 23.9765 302.176 24.0283 302.65 24.1387C303.051 24.2446 303.432 24.418 303.775 24.6516Z" fill="#FF7E49"/>
<defs>
<linearGradient id="paint0_linear_168_3227" x1="43.0952" y1="25.3147" x2="6.92301" y2="6.04112" gradientUnits="userSpaceOnUse">
<stop stop-color="#FC883A"/>
<stop offset="0.96" stop-color="#F2542A"/>
</linearGradient>
<linearGradient id="paint1_linear_168_3227" x1="43.8273" y1="24.9751" x2="5.37211" y2="4.48351" gradientUnits="userSpaceOnUse">
<stop stop-color="#FC883A"/>
<stop offset="1" stop-color="#F2542A"/>
</linearGradient>
</defs>
</svg>
