<svg xmlns="http://www.w3.org/2000/svg" width="64" height="64" viewBox="0 0 64 64">
<style type="text/css">
	.st0{fill:url(#SVGID_1_);}
	.st1{fill:url(#SVGID_2_);}
</style>
<linearGradient id="SVGID_1_" gradientUnits="userSpaceOnUse" x1="52.5557" y1="25.5792" x2="9.1344" y2="48.7153" gradientTransform="matrix(1 0 0 -1 0 66)">
	<stop  offset="0" style="stop-color:#FC883A"/>
	<stop  offset="0.96" style="stop-color:#F2542A"/>
</linearGradient>
<path class="st0" d="M20.7,34c0,0.6,0.1,1.1,0.3,1.7c0.2,0.5,0.5,1,0.9,1.4c0.4,0.4,0.9,0.7,1.4,0.9c0.5,0.2,1.1,0.3,1.7,0.3h23.4
	c1.1,0,2.3-0.2,3.3-0.7c1-0.4,2-1.1,2.8-1.9c0.8-0.8,1.4-1.8,1.9-2.8c0.4-1,0.7-2.2,0.7-3.3H25c-0.6,0-1.1,0.1-1.7,0.3
	c-0.5,0.2-1,0.5-1.4,0.9c-0.4,0.4-0.7,0.9-0.9,1.4C20.8,32.9,20.7,33.4,20.7,34z"/>
<linearGradient id="SVGID_2_" gradientUnits="userSpaceOnUse" x1="53.4352" y1="25.9829" x2="7.2732" y2="50.5812" gradientTransform="matrix(1 0 0 -1 0 66)">
	<stop  offset="0" style="stop-color:#FC883A"/>
	<stop  offset="1" style="stop-color:#F2542A"/>
</linearGradient>
<path class="st1" d="M21.6,20.5c-0.7,0-1.3-0.3-1.8-0.7c-0.5-0.5-0.7-1.1-0.7-1.8v-5.1c0-0.1,0-0.2-0.1-0.2
	c-0.1-0.1-0.1-0.1-0.2-0.1c-0.1,0-0.2,0-0.3,0c-0.1,0-0.1,0.1-0.2,0.2c-1.1,2.2-3.3,4.7-6.7,6.6C10.3,20,9,20.5,7.5,20.9
	c-5.4,1.5-6.8,6.8-6.7,8.9c6.6-2.1,9.8,2,10.7,6.7c0.6,3.1,2.2,5.9,4.7,8c2.4,2,5.5,3.1,8.7,3.1h4.9c1,0,2-0.2,3-0.6
	c0.9-0.4,1.8-1,2.5-1.7c0.7-0.7,1.3-1.6,1.7-2.5c0.4-0.9,0.6-1.9,0.6-3H25.1c-0.8,0-1.5-0.1-2.2-0.4c-0.7-0.3-1.4-0.7-1.9-1.2
	c-0.6-0.5-1-1.2-1.3-1.9c-0.3-0.7-0.5-1.5-0.5-2.2c0-0.8,0.1-1.5,0.4-2.2c0.3-0.7,0.7-1.4,1.2-1.9c0.5-0.6,1.2-1,1.9-1.3
	c0.7-0.3,1.5-0.5,2.2-0.5c0.1,0,0.1,0,0.2,0h30c2.1,0,4-0.8,5.5-2.3c1.5-1.5,2.3-3.4,2.3-5.5L21.6,20.5z"/>
</svg>